<svg width="109" height="37" viewBox="0 0 109 37" fill="none" xmlns="http://www.w3.org/2000/svg">
<g clip-path="url(#clip0_2955_5940)">
<mask id="mask0_2955_5940" style="mask-type:luminance" maskUnits="userSpaceOnUse" x="0" y="0" width="109" height="37">
<path d="M108.094 0.268555H0.400391V36.2686H108.094V0.268555Z" fill="white"/>
</mask>
<g mask="url(#mask0_2955_5940)">
<path d="M99.5174 0.268555H8.97739C8.65339 0.268555 8.32939 0.268555 7.99639 0.268555C7.71739 0.268555 7.44739 0.277555 7.16839 0.277555C6.56539 0.295555 5.96239 0.331555 5.36839 0.439555C4.76539 0.547555 4.20739 0.727555 3.65839 1.00655C3.11839 1.27655 2.62339 1.63655 2.20039 2.06855C1.76839 2.49155 1.40839 2.98655 1.13839 3.52655C0.859391 4.07555 0.679391 4.63355 0.571391 5.23655C0.463391 5.83055 0.427391 6.43355 0.409391 7.03655C0.409391 7.31555 0.400391 7.59455 0.400391 7.86455C0.400391 8.18855 0.400391 8.52155 0.400391 8.84556V27.6826C0.400391 28.0156 0.400391 28.3396 0.400391 28.6636C0.400391 28.9426 0.409391 29.2126 0.418391 29.4916C0.436391 30.0946 0.472391 30.6976 0.580391 31.2916C0.688391 31.8946 0.859391 32.4616 1.14739 33.0016C1.41739 33.5416 1.77739 34.0276 2.20939 34.4506C2.63239 34.8826 3.12739 35.2426 3.66739 35.5126C4.21639 35.7916 4.77439 35.9716 5.37739 36.0796C5.97139 36.1876 6.58339 36.2236 7.17739 36.2416C7.44739 36.2596 7.71739 36.2686 7.99639 36.2686C8.32939 36.2686 8.65339 36.2686 8.97739 36.2686H99.5174C99.8414 36.2686 100.165 36.2686 100.489 36.2686C100.759 36.2686 101.047 36.2686 101.317 36.2596C101.92 36.2416 102.523 36.2056 103.117 36.0976C103.72 35.9896 104.278 35.8096 104.836 35.5306C105.376 35.2606 105.862 34.9006 106.294 34.4686C106.726 34.0456 107.077 33.5506 107.356 33.0196C107.635 32.4706 107.815 31.9126 107.914 31.3096C108.022 30.7156 108.058 30.1126 108.085 29.5096C108.085 29.2306 108.085 28.9606 108.085 28.6816C108.094 28.3576 108.094 28.0336 108.094 27.7006V8.85456C108.094 8.52155 108.094 8.19756 108.085 7.87356C108.085 7.59455 108.085 7.32455 108.085 7.04556C108.067 6.44255 108.031 5.83955 107.914 5.24555C107.815 4.64255 107.635 4.08455 107.356 3.53555C107.077 2.99555 106.717 2.50055 106.294 2.07755C105.871 1.65455 105.376 1.29455 104.836 1.01555C104.278 0.736555 103.72 0.556555 103.117 0.448555C102.523 0.340555 101.92 0.304555 101.317 0.286555C101.047 0.286555 100.759 0.277555 100.489 0.277555C100.174 0.268555 99.8414 0.268555 99.5174 0.268555Z" fill="black"/>
<path d="M7.9966 35.4766C7.7266 35.4766 7.4566 35.4766 7.1866 35.4676C6.6826 35.4496 6.0886 35.4226 5.5036 35.3236C4.9546 35.2246 4.4686 35.0626 4.0096 34.8286C3.5416 34.5946 3.1186 34.2796 2.7496 33.9106C2.3806 33.5416 2.0746 33.1276 1.8316 32.6506C1.59759 32.2006 1.43559 31.7056 1.34559 31.1566C1.23759 30.5536 1.21059 29.9326 1.19259 29.4646C1.18359 29.2756 1.18359 28.6456 1.18359 28.6456V7.86454C1.18359 7.86454 1.19259 7.24354 1.19259 7.06354C1.21059 6.59554 1.23759 5.97454 1.34559 5.38054C1.44459 4.82254 1.6066 4.33654 1.8406 3.88654C2.0836 3.41854 2.3896 2.99554 2.7586 2.62654C3.1276 2.24854 3.5506 1.94254 4.0096 1.70854C4.4686 1.47454 4.9636 1.31255 5.4946 1.22255C6.1066 1.10555 6.7186 1.07855 7.1866 1.06955L7.9966 1.06055H100.49L101.309 1.06955C101.768 1.07855 102.389 1.10555 102.983 1.21355C103.523 1.31255 104.018 1.46555 104.486 1.70854C104.945 1.94254 105.368 2.25754 105.737 2.62654C106.106 2.99554 106.412 3.41854 106.655 3.88654C106.889 4.34554 107.042 4.83154 107.141 5.37154C107.249 5.93854 107.276 6.52354 107.294 7.07254C107.294 7.32454 107.294 7.60354 107.294 7.87354C107.303 8.21554 107.303 8.53054 107.303 8.85454V27.6916C107.303 28.0156 107.303 28.3396 107.294 28.6636C107.294 28.9606 107.294 29.2216 107.294 29.5006C107.276 30.0316 107.24 30.6166 107.141 31.1656C107.051 31.7146 106.889 32.2096 106.655 32.6686C106.412 33.1366 106.106 33.5596 105.737 33.9196C105.368 34.2976 104.945 34.6036 104.477 34.8376C104.009 35.0716 103.532 35.2336 102.974 35.3326C102.398 35.4406 101.804 35.4676 101.291 35.4766C101.03 35.4856 100.751 35.4856 100.481 35.4856H99.5086L7.9966 35.4766Z" fill="white"/>
<path d="M22.9004 18.1693C22.8734 15.5953 25.0064 14.3443 25.1054 14.2813C23.8994 12.5173 22.0274 12.2833 21.3704 12.2653C19.7954 12.1033 18.2744 13.2013 17.4734 13.2013C16.6544 13.2013 15.4214 12.2743 14.0984 12.3013C12.3884 12.3283 10.7864 13.3183 9.91339 14.8573C8.10439 17.9893 9.4544 22.5973 11.1914 25.1263C12.0554 26.3683 13.0724 27.7543 14.3954 27.7003C15.6914 27.6463 16.1774 26.8723 17.7434 26.8723C19.2914 26.8723 19.7504 27.7003 21.1004 27.6733C22.4954 27.6463 23.3684 26.4313 24.2054 25.1713C25.2044 23.7493 25.6094 22.3453 25.6274 22.2733C25.6004 22.2733 22.9274 21.2563 22.9004 18.1693Z" fill="#111111"/>
<path d="M20.3466 10.601C21.0486 9.72798 21.5256 8.53998 21.3906 7.33398C20.3826 7.37898 19.1136 8.03598 18.3846 8.89098C17.7366 9.64698 17.1696 10.88 17.3136 12.041C18.4476 12.113 19.6176 11.456 20.3466 10.601Z" fill="#111111"/>
<path d="M38.4717 24.695H34.2147L33.1887 27.719H31.3887L35.4207 16.541H37.2927L41.3247 27.719H39.4887L38.4717 24.695ZM34.6557 23.3H38.0307L36.3657 18.395H36.3207L34.6557 23.3Z" fill="#111111"/>
<path d="M50.0461 23.6414C50.0461 26.1704 48.6871 27.7994 46.6441 27.7994C45.4831 27.7994 44.5651 27.2774 44.0791 26.3774H44.0431V30.4094H42.3691V19.5644H43.9891V20.9234H44.0161C44.4841 20.0504 45.4741 19.4834 46.6081 19.4834C48.6781 19.4834 50.0461 21.1124 50.0461 23.6414ZM48.3271 23.6414C48.3271 21.9944 47.4721 20.9054 46.1761 20.9054C44.8981 20.9054 44.0341 22.0124 44.0341 23.6414C44.0341 25.2794 44.8981 26.3864 46.1761 26.3864C47.4721 26.3864 48.3271 25.3064 48.3271 23.6414Z" fill="#111111"/>
<path d="M59.0078 23.6414C59.0078 26.1704 57.6488 27.7994 55.6058 27.7994C54.4448 27.7994 53.5268 27.2774 53.0408 26.3774H53.0048V30.4094H51.3398V19.5644H52.9598V20.9234H52.9868C53.4548 20.0504 54.4448 19.4834 55.5788 19.4834C57.6488 19.4834 59.0078 21.1124 59.0078 23.6414ZM57.2888 23.6414C57.2888 21.9944 56.4338 20.9054 55.1378 20.9054C53.8598 20.9054 52.9958 22.0124 52.9958 23.6414C52.9958 25.2794 53.8598 26.3864 55.1378 26.3864C56.4428 26.3864 57.2888 25.3064 57.2888 23.6414Z" fill="#111111"/>
<path d="M64.9405 24.6046C65.0665 25.7116 66.1375 26.4406 67.6135 26.4406C69.0265 26.4406 70.0345 25.7116 70.0345 24.7126C70.0345 23.8486 69.4225 23.3266 67.9735 22.9666L66.5245 22.6156C64.4725 22.1206 63.5185 21.1576 63.5185 19.6006C63.5185 17.6746 65.2015 16.3516 67.5865 16.3516C69.9445 16.3516 71.5645 17.6746 71.6185 19.6006H69.9265C69.8275 18.4846 68.9005 17.8096 67.5595 17.8096C66.2185 17.8096 65.2915 18.4936 65.2915 19.4836C65.2915 20.2756 65.8765 20.7346 67.3165 21.0946L68.5495 21.4006C70.8445 21.9406 71.7985 22.8676 71.7985 24.4966C71.7985 26.5846 70.1335 27.8986 67.4875 27.8986C65.0125 27.8986 63.3385 26.6206 63.2305 24.5956H64.9405V24.6046Z" fill="#111111"/>
<path d="M75.4159 17.6387V19.5647H76.9639V20.8877H75.4159V25.3787C75.4159 26.0807 75.7219 26.4047 76.4059 26.4047C76.5769 26.4047 76.8469 26.3777 76.9549 26.3687V27.6827C76.7659 27.7277 76.3969 27.7637 76.0279 27.7637C74.3809 27.7637 73.7329 27.1427 73.7329 25.5677V20.8967H72.5449V19.5737H73.7329V17.6387H75.4159Z" fill="#111111"/>
<path d="M77.8555 23.6418C77.8555 21.0768 79.3675 19.4658 81.7165 19.4658C84.0745 19.4658 85.5775 21.0768 85.5775 23.6418C85.5775 26.2158 84.0835 27.8178 81.7165 27.8178C79.3585 27.8178 77.8555 26.2158 77.8555 23.6418ZM83.8855 23.6418C83.8855 21.8868 83.0755 20.8428 81.7255 20.8428C80.3755 20.8428 79.5655 21.8868 79.5655 23.6418C79.5655 25.4058 80.3755 26.4408 81.7255 26.4408C83.0755 26.4408 83.8855 25.4058 83.8855 23.6418Z" fill="#111111"/>
<path d="M86.9727 19.5646H88.5657V20.9506H88.6017C88.8537 20.0326 89.6007 19.4746 90.5637 19.4746C90.8067 19.4746 91.0047 19.5106 91.1397 19.5376V21.1036C91.0047 21.0496 90.7167 21.0046 90.3927 21.0046C89.3127 21.0046 88.6467 21.7336 88.6467 22.8766V27.7096H86.9727V19.5646Z" fill="#111111"/>
<path d="M98.8432 25.3248C98.6182 26.8008 97.1782 27.8178 95.3332 27.8178C92.9662 27.8178 91.4902 26.2338 91.4902 23.6778C91.4902 21.1218 92.9662 19.4658 95.2612 19.4658C97.5112 19.4658 98.9332 21.0138 98.9332 23.4888V24.0648H93.1822V24.1638C93.1822 25.5588 94.0552 26.4678 95.3782 26.4678C96.3052 26.4678 97.0342 26.0268 97.2592 25.3248H98.8432ZM93.1912 22.8858H97.2682C97.2322 21.6348 96.4312 20.8158 95.2702 20.8158C94.1092 20.8248 93.2812 21.6618 93.1912 22.8858Z" fill="#111111"/>
<path d="M33.4658 10.3934H34.1858C34.7798 10.3934 35.1938 10.0424 35.1938 9.53844C35.1938 9.04344 34.8248 8.71944 34.1858 8.71944C33.5558 8.71944 33.1508 9.03445 33.1058 9.55645H32.3138C32.3678 8.58445 33.0878 7.98145 34.2128 7.98145C35.2658 7.98145 36.0128 8.57545 36.0128 9.42145C36.0128 10.0154 35.6168 10.5194 35.0408 10.6454V10.7084C35.7338 10.7804 36.2378 11.2574 36.2378 12.0044C36.2378 12.9225 35.3648 13.5975 34.2308 13.5975C33.0608 13.5975 32.2598 12.9675 32.2148 12.0044H33.0158C33.0608 12.5175 33.5378 12.8505 34.2308 12.8505C34.9238 12.8505 35.3828 12.4815 35.3828 11.9504C35.3828 11.4194 34.9508 11.0864 34.2038 11.0864H33.4658V10.3934Z" fill="#111111"/>
<path d="M37.1484 12.3462C37.1484 11.6172 37.6884 11.1942 38.6514 11.1402L39.7494 11.0772V10.7262C39.7494 10.2942 39.4704 10.0602 38.9214 10.0602C38.4714 10.0602 38.1654 10.2222 38.0754 10.5102H37.3014C37.3824 9.81719 38.0394 9.36719 38.9574 9.36719C39.9744 9.36719 40.5504 9.87119 40.5504 10.7262V13.4982H39.7764V12.9312H39.7134C39.4704 13.3362 39.0294 13.5702 38.4984 13.5702C37.7154 13.5612 37.1484 13.0932 37.1484 12.3462ZM39.7494 12.0042V11.6622L38.7594 11.7252C38.2014 11.7612 37.9494 11.9502 37.9494 12.3102C37.9494 12.6792 38.2644 12.8862 38.6964 12.8862C39.3084 12.8862 39.7494 12.5082 39.7494 12.0042Z" fill="#111111"/>
<path d="M42.674 10.1145V13.4894H41.873V9.43945H44.537V10.1145H42.674Z" fill="#111111"/>
<path d="M49.3867 11.4642C49.3867 12.7512 48.7387 13.5612 47.7127 13.5612C47.1367 13.5612 46.6777 13.3092 46.4617 12.8772H46.3987V14.8392H45.5977V9.43919H46.3717V10.1052H46.4347C46.6777 9.64619 47.1547 9.36719 47.7037 9.36719C48.7387 9.37619 49.3867 10.1772 49.3867 11.4642ZM48.5677 11.4642C48.5677 10.6092 48.1627 10.0872 47.4877 10.0872C46.8127 10.0872 46.3897 10.6182 46.3897 11.4642C46.3897 12.3102 46.8127 12.8412 47.4787 12.8412C48.1627 12.8412 48.5677 12.3282 48.5677 11.4642Z" fill="#111111"/>
<path d="M50.4511 14.9474V14.2544C50.5141 14.2634 50.6401 14.2724 50.7121 14.2724C51.0901 14.2724 51.3061 14.1194 51.4411 13.7054L51.5041 13.5074L50.0371 9.43945H50.9101L51.9271 12.6614H51.9901L52.9981 9.43945H53.8441L52.3321 13.6604C51.9901 14.6504 51.6031 14.9654 50.7751 14.9654C50.7211 14.9654 50.5321 14.9564 50.4511 14.9474Z" fill="#111111"/>
<path d="M54.4746 12.3462H55.2666C55.3476 12.7062 55.6806 12.8862 56.1486 12.8862C56.6796 12.8862 57.0126 12.6522 57.0126 12.2832C57.0126 11.8962 56.7156 11.7072 56.1486 11.7072H55.5456V11.0862H56.1396C56.6256 11.0862 56.8686 10.8972 56.8686 10.5642C56.8686 10.2672 56.6346 10.0422 56.1396 10.0422C55.6896 10.0422 55.3656 10.2312 55.3116 10.5552H54.5376C54.6186 9.83519 55.2216 9.36719 56.1306 9.36719C57.0936 9.36719 57.6426 9.79919 57.6426 10.4832C57.6426 10.8882 57.3816 11.2212 57.0036 11.3112V11.3742C57.5256 11.5002 57.7956 11.8332 57.7956 12.2832C57.7956 13.0572 57.1386 13.5612 56.1396 13.5612C55.2666 13.5702 54.5466 13.1652 54.4746 12.3462Z" fill="#111111"/>
<path d="M58.9648 13.4983V9.44824H59.7568V12.2382H59.8198L61.6918 9.44824H62.4838V13.4983H61.6918V10.6992H61.6288L59.7568 13.4983H58.9648Z" fill="#111111"/>
<path d="M66.8472 10.1145H65.5692V13.4894H64.7682V10.1145H63.4902V9.43945H66.8472V10.1145Z" fill="#111111"/>
<path d="M71.1504 12.4002C70.9704 13.1292 70.3224 13.5702 69.3954 13.5702C68.2344 13.5702 67.5234 12.7782 67.5234 11.4822C67.5234 10.1862 68.2524 9.36719 69.3954 9.36719C70.5204 9.36719 71.2044 10.1412 71.2044 11.4102V11.6892H68.3424V11.7342C68.3694 12.4452 68.7834 12.8952 69.4224 12.8952C69.9084 12.8952 70.2414 12.7242 70.3854 12.4002H71.1504ZM68.3424 11.0952H70.3854C70.3674 10.4562 69.9804 10.0422 69.3864 10.0422C68.7924 10.0422 68.3874 10.4652 68.3424 11.0952Z" fill="#111111"/>
<path d="M74.543 9.43945H76.37C77.162 9.43945 77.63 9.84445 77.63 10.4745C77.63 10.8885 77.342 11.2575 76.946 11.3295V11.3925C77.468 11.4555 77.81 11.8335 77.81 12.3284C77.81 13.0394 77.279 13.4984 76.388 13.4984H74.543V9.43945ZM75.335 10.0605V11.1135H76.127C76.613 11.1135 76.838 10.9245 76.838 10.5825C76.838 10.2675 76.64 10.0605 76.208 10.0605H75.335ZM75.335 11.6985V12.8864H76.28C76.757 12.8864 77.009 12.6794 77.009 12.2924C77.009 11.8875 76.721 11.6985 76.181 11.6985H75.335Z" fill="#111111"/>
</g>
</g>
<defs>
<clipPath id="clip0_2955_5940">
<rect width="108" height="36" fill="white" transform="translate(0.400391 0.268555)"/>
</clipPath>
</defs>
</svg>
