<svg width="123" height="37" viewBox="0 0 123 37" fill="none" xmlns="http://www.w3.org/2000/svg">
<g clip-path="url(#clip0_2955_5919)">
<mask id="mask0_2955_5919" style="mask-type:luminance" maskUnits="userSpaceOnUse" x="0" y="0" width="122" height="37">
<path d="M121.5 0.268555H0V36.2686H121.5V0.268555Z" fill="white"/>
</mask>
<g mask="url(#mask0_2955_5919)">
<path d="M112.923 0.268555H8.577C8.253 0.268555 7.929 0.268555 7.596 0.268555C7.317 0.268555 7.047 0.277555 6.768 0.277555C6.165 0.295555 5.562 0.331555 4.968 0.439555C4.365 0.547555 3.807 0.727555 3.258 1.00655C2.718 1.27655 2.223 1.63655 1.8 2.06855C1.368 2.49155 1.008 2.98655 0.738 3.52655C0.459 4.07555 0.279 4.63355 0.171 5.23655C0.063 5.83055 0.027 6.43355 0.009 7.03655C0.009 7.31555 0 7.59455 0 7.86455C0 8.18855 0 8.52155 0 8.84556V27.6826C0 28.0156 0 28.3396 0 28.6636C0 28.9426 0.009 29.2126 0.018 29.4916C0.036 30.0946 0.072 30.6976 0.18 31.2916C0.288 31.8946 0.459 32.4616 0.747 33.0016C1.017 33.5416 1.377 34.0276 1.809 34.4506C2.232 34.8826 2.727 35.2426 3.267 35.5126C3.816 35.7916 4.374 35.9716 4.977 36.0796C5.571 36.1876 6.183 36.2236 6.777 36.2416C7.047 36.2596 7.317 36.2686 7.596 36.2686C7.929 36.2686 8.253 36.2686 8.577 36.2686H112.923C113.247 36.2686 113.571 36.2686 113.895 36.2686C114.165 36.2686 114.453 36.2686 114.723 36.2596C115.326 36.2416 115.929 36.2056 116.523 36.0976C117.126 35.9896 117.684 35.8096 118.242 35.5306C118.782 35.2606 119.268 34.9006 119.7 34.4686C120.132 34.0456 120.482 33.5506 120.762 33.0196C121.04 32.4706 121.222 31.9126 121.32 31.3096C121.428 30.7156 121.464 30.1126 121.492 29.5096C121.492 29.2306 121.492 28.9606 121.492 28.6816C121.5 28.3486 121.5 28.0156 121.5 27.6826V8.85456C121.5 8.52155 121.5 8.19756 121.492 7.87356C121.492 7.59455 121.492 7.32455 121.492 7.04556C121.474 6.44255 121.438 5.83955 121.32 5.24555C121.222 4.64255 121.04 4.08455 120.762 3.53555C120.482 2.99555 120.124 2.50055 119.7 2.07755C119.277 1.65455 118.782 1.29455 118.242 1.01555C117.684 0.736555 117.126 0.556555 116.523 0.448555C115.929 0.340555 115.326 0.304555 114.723 0.286555C114.453 0.286555 114.165 0.277555 113.895 0.277555C113.571 0.268555 113.247 0.268555 112.923 0.268555Z" fill="#111111"/>
<path d="M7.59425 35.4766C7.32425 35.4766 7.05425 35.4766 6.78425 35.4676C6.28025 35.4496 5.68625 35.4226 5.10125 35.3236C4.55225 35.2246 4.06625 35.0626 3.60725 34.8286C3.13925 34.5946 2.71625 34.2796 2.34725 33.9106C1.97825 33.5416 1.67225 33.1276 1.42925 32.6506C1.19525 32.2006 1.03325 31.7056 0.94325 31.1566C0.83525 30.5536 0.80825 29.9326 0.79025 29.4646C0.78125 29.2756 0.78125 28.6456 0.78125 28.6456V7.86454C0.78125 7.86454 0.79025 7.24354 0.79025 7.06354C0.80825 6.59554 0.83525 5.97454 0.94325 5.38054C1.04225 4.82254 1.20425 4.33654 1.43825 3.88654C1.68125 3.41854 1.98725 2.99554 2.35625 2.62654C2.72525 2.24854 3.14825 1.94254 3.60725 1.70854C4.06625 1.47454 4.56125 1.31255 5.09225 1.22255C5.70425 1.10555 6.31625 1.07855 6.78425 1.06955L7.59425 1.06055H113.884L114.703 1.06955C115.162 1.07855 115.783 1.10555 116.377 1.21355C116.917 1.31255 117.412 1.46555 117.88 1.70854C118.339 1.94254 118.762 2.25754 119.131 2.62654C119.5 2.99554 119.806 3.41854 120.05 3.88654C120.284 4.34554 120.436 4.83154 120.536 5.37154C120.644 5.93854 120.67 6.52354 120.688 7.07254C120.688 7.32454 120.688 7.60354 120.688 7.87354C120.698 8.21554 120.698 8.53054 120.698 8.85454V27.6916C120.698 28.0156 120.698 28.3396 120.688 28.6636C120.688 28.9606 120.688 29.2216 120.688 29.5006C120.67 30.0316 120.634 30.6166 120.536 31.1656C120.446 31.7146 120.284 32.2096 120.05 32.6686C119.806 33.1366 119.5 33.5596 119.131 33.9196C118.762 34.2976 118.339 34.6036 117.871 34.8376C117.403 35.0716 116.926 35.2336 116.368 35.3326C115.792 35.4406 115.198 35.4676 114.685 35.4766C114.424 35.4856 114.145 35.4856 113.875 35.4856H112.903L7.59425 35.4766Z" fill="white"/>
<path d="M61.3236 19.8433C59.2086 19.8433 57.4806 21.4543 57.4806 23.6683C57.4806 25.8733 59.2086 27.4933 61.3236 27.4933C63.4386 27.4933 65.1666 25.8733 65.1666 23.6683C65.1576 21.4543 63.4386 19.8433 61.3236 19.8433ZM61.3236 25.9903C60.1626 25.9903 59.1636 25.0363 59.1636 23.6683C59.1636 22.2913 60.1626 21.3463 61.3236 21.3463C62.4846 21.3463 63.4836 22.2913 63.4836 23.6683C63.4836 25.0363 62.4756 25.9903 61.3236 25.9903ZM52.9356 19.8433C50.8206 19.8433 49.0926 21.4543 49.0926 23.6683C49.0926 25.8733 50.8206 27.4933 52.9356 27.4933C55.0506 27.4933 56.7786 25.8733 56.7786 23.6683C56.7786 21.4543 55.0506 19.8433 52.9356 19.8433ZM52.9356 25.9903C51.7746 25.9903 50.7756 25.0363 50.7756 23.6683C50.7756 22.2913 51.7746 21.3463 52.9356 21.3463C54.0966 21.3463 55.0956 22.2913 55.0956 23.6683C55.0956 25.0363 54.0966 25.9903 52.9356 25.9903ZM42.9636 21.0223V22.6423H46.8516C46.7346 23.5603 46.4286 24.2263 45.9696 24.6853C45.4026 25.2523 44.5206 25.8733 42.9726 25.8733C40.5786 25.8733 38.7066 23.9473 38.7066 21.5533C38.7066 19.1593 40.5786 17.2333 42.9726 17.2333C44.2596 17.2333 45.2046 17.7373 45.8976 18.3943L47.0406 17.2513C46.0686 16.3243 44.7816 15.6133 42.9636 15.6133C39.6876 15.6133 36.9336 18.2773 36.9336 21.5533C36.9336 24.8293 39.6876 27.5023 42.9636 27.5023C44.7276 27.5023 46.0686 26.9263 47.1126 25.8373C48.1836 24.7663 48.5166 23.2543 48.5166 22.0393C48.5166 21.6613 48.4896 21.3193 48.4266 21.0223H42.9636ZM83.7426 22.2823C83.4186 21.4273 82.4556 19.8433 80.4666 19.8433C78.4956 19.8433 76.8576 21.3913 76.8576 23.6683C76.8576 25.8103 78.4776 27.4933 80.6556 27.4933C82.4106 27.4933 83.4276 26.4223 83.8416 25.8013L82.5366 24.9283C82.1046 25.5673 81.5106 25.9903 80.6556 25.9903C79.8006 25.9903 79.1886 25.5943 78.8016 24.8293L83.9226 22.7143L83.7426 22.2823ZM78.5226 23.5603C78.4776 22.0843 79.6656 21.3283 80.5206 21.3283C81.1866 21.3283 81.7536 21.6613 81.9426 22.1383L78.5226 23.5603ZM74.3646 27.2683H76.0476V16.0183H74.3646V27.2683ZM71.6106 20.6983H71.5476C71.1696 20.2483 70.4496 19.8433 69.5316 19.8433C67.6146 19.8433 65.8596 21.5263 65.8596 23.6863C65.8596 25.8283 67.6146 27.5023 69.5316 27.5023C70.4496 27.5023 71.1696 27.0973 71.5476 26.6293H71.6016V27.1783C71.6016 28.6453 70.8186 29.4283 69.5586 29.4283C68.5326 29.4283 67.8936 28.6903 67.6326 28.0693L66.1656 28.6813C66.5886 29.6983 67.7046 30.9403 69.5586 30.9403C71.5296 30.9403 73.1946 29.7793 73.1946 26.9533V20.0773H71.6016V20.6983H71.6106ZM69.6756 25.9903C68.5146 25.9903 67.5426 25.0183 67.5426 23.6863C67.5426 22.3363 68.5146 21.3553 69.6756 21.3553C70.8186 21.3553 71.7186 22.3453 71.7186 23.6863C71.7276 25.0183 70.8276 25.9903 69.6756 25.9903ZM91.6266 16.0183H87.6036V27.2683H89.2776V23.0023H91.6266C93.4896 23.0023 95.3166 21.6523 95.3166 19.5103C95.3166 17.3683 93.4806 16.0183 91.6266 16.0183ZM91.6626 21.4363H89.2776V17.5753H91.6626C92.9226 17.5753 93.6336 18.6193 93.6336 19.5013C93.6336 20.3833 92.9226 21.4363 91.6626 21.4363ZM102.049 19.8253C100.834 19.8253 99.5736 20.3563 99.0516 21.5443L100.546 22.1653C100.861 21.5443 101.455 21.3373 102.076 21.3373C102.949 21.3373 103.831 21.8593 103.84 22.7863V22.9033C103.534 22.7323 102.886 22.4713 102.085 22.4713C100.483 22.4713 98.8446 23.3533 98.8446 25.0003C98.8446 26.5033 100.159 27.4753 101.635 27.4753C102.76 27.4753 103.39 26.9713 103.777 26.3773H103.831V27.2413H105.451V22.9303C105.46 20.9413 103.966 19.8253 102.049 19.8253ZM101.842 25.9903C101.293 25.9903 100.528 25.7113 100.528 25.0363C100.528 24.1723 101.482 23.8393 102.31 23.8393C103.048 23.8393 103.399 24.0013 103.849 24.2173C103.705 25.2523 102.814 25.9903 101.842 25.9903ZM111.364 20.0683L109.438 24.9463H109.384L107.386 20.0683H105.577L108.574 26.8813L106.864 30.6703H108.619L113.236 20.0683H111.364ZM96.2436 27.2683H97.9266V16.0183H96.2436V27.2683Z" fill="black"/>
<path d="M18.6475 17.7461L9.0625 27.9161V27.9251C9.3595 29.0321 10.3675 29.8421 11.5645 29.8421C12.0415 29.8421 12.4915 29.7161 12.8785 29.4821L12.9055 29.4641L23.6875 23.2451L18.6475 17.7461Z" fill="#E33928"/>
<path d="M28.3387 16.0186L28.3297 16.0096L23.6767 13.3096L18.4297 17.9806L23.6947 23.2456L28.3297 20.5726C29.1397 20.1316 29.6977 19.2766 29.6977 18.2956C29.6887 17.3056 29.1397 16.4596 28.3387 16.0186Z" fill="#F8BB00"/>
<path d="M9.0607 8.62012C9.0067 8.83612 8.9707 9.05212 8.9707 9.28612V27.2591C8.9707 27.4931 8.9977 27.7091 9.0607 27.9251L18.9697 18.0161L9.0607 8.62012Z" fill="#5A7DB9"/>
<path d="M18.7195 18.2684L23.6785 13.3094L12.9055 7.06334C12.5095 6.82934 12.0595 6.69434 11.5645 6.69434C10.3675 6.69434 9.3595 7.50434 9.0625 8.61134L18.7195 18.2684Z" fill="#1DA243"/>
<path d="M38.7603 11.8331C38.3103 11.5811 37.9593 11.2211 37.7073 10.7801C37.4553 10.3301 37.3203 9.83512 37.3203 9.29512C37.3203 8.75512 37.4463 8.26012 37.7073 7.81012C37.9593 7.36012 38.3103 7.00912 38.7603 6.75712C39.2103 6.50512 39.7053 6.37012 40.2453 6.37012C41.0823 6.37012 41.7753 6.67612 42.3243 7.28812L41.7213 7.87312C41.5323 7.63912 41.3163 7.46812 41.0733 7.36012C40.8393 7.24312 40.5603 7.18912 40.2543 7.18912C39.8763 7.18912 39.5253 7.27912 39.2103 7.45012C38.8953 7.62112 38.6523 7.87312 38.4633 8.19712C38.2833 8.52112 38.1933 8.89012 38.1933 9.30412C38.1933 9.71812 38.2833 10.0871 38.4633 10.4111C38.6433 10.7351 38.8953 10.9781 39.2103 11.1581C39.5253 11.3291 39.8673 11.4191 40.2543 11.4191C40.8933 11.4191 41.4243 11.1581 41.8563 10.6271L42.4773 11.2211C42.2073 11.5361 41.8833 11.7881 41.4963 11.9681C41.1183 12.1481 40.6953 12.2381 40.2453 12.2381C39.6963 12.2111 39.2013 12.0851 38.7603 11.8331Z" fill="black"/>
<path d="M43.4434 6.47852H44.3074V9.19652H44.3524L46.5844 6.47852H47.6644V6.52352L45.2974 9.32252L47.7904 12.0315V12.0765H46.6654L44.3524 9.51152H44.3074V12.0765H43.4434V6.47852Z" fill="black"/>
<path d="M50.4368 6.47852H51.4178L53.5418 12.0855H52.5968L52.0838 10.6455H49.7978L49.2848 12.0855H48.3398L50.4368 6.47852ZM51.7958 9.85352L51.1658 8.13452L50.9588 7.49552H50.9138L50.7068 8.13452L50.0768 9.85352H51.7958Z" fill="black"/>
<path d="M56.7815 9.59252C56.4305 9.89852 55.9985 10.0515 55.4855 10.0515C55.1435 10.0515 54.8375 9.97952 54.5675 9.84452C54.2975 9.70952 54.0815 9.50252 53.9195 9.24152C53.7665 8.98052 53.6855 8.67452 53.6855 8.31452V6.47852H54.5585V8.17052C54.5585 8.51252 54.6575 8.77352 54.8555 8.95352C55.0535 9.14252 55.3235 9.23252 55.6565 9.23252C56.1065 9.23252 56.4845 9.05252 56.7815 8.70152V6.47852H57.6365V12.0855H56.7815V9.59252Z" fill="black"/>
<path d="M60.5072 6.47852H61.4882L63.6122 12.0855H62.6672L62.1542 10.6455H59.8682L59.3552 12.0855H58.4102L60.5072 6.47852ZM61.8662 9.85352L61.2362 8.13452L61.0292 7.49552H60.9842L60.7772 8.13452L60.1472 9.85352H61.8662Z" fill="black"/>
<path d="M65.0594 7.29752H63.4844V6.47852H67.4894V7.28852H65.9234V12.0765H65.0594V7.29752Z" fill="black"/>
<path d="M68.3809 6.47852H69.2449V8.47652H70.4329C70.7839 8.47652 71.1079 8.54852 71.4049 8.69252C71.7019 8.83652 71.9359 9.04352 72.1159 9.32252C72.2959 9.59252 72.3859 9.91652 72.3859 10.2855C72.3859 10.6545 72.2959 10.9695 72.1159 11.2485C71.9359 11.5185 71.7019 11.7345 71.4049 11.8785C71.1079 12.0225 70.7839 12.0945 70.4329 12.0945H68.3809V6.47852ZM70.4959 11.2845C70.7029 11.2845 70.8829 11.2395 71.0359 11.1405C71.1889 11.0505 71.3149 10.9245 71.3959 10.7715C71.4769 10.6185 71.5219 10.4565 71.5219 10.2855C71.5219 10.1145 71.4769 9.95252 71.3959 9.79952C71.3149 9.64652 71.1889 9.52052 71.0359 9.42152C70.8829 9.32252 70.7029 9.27752 70.4959 9.27752H69.2449V11.2935H70.4959V11.2845Z" fill="black"/>
<path d="M75.1582 6.47852H76.0132V9.58352L75.9682 10.6635H76.0132L78.5242 6.47852H79.5052V12.0855H78.6502V8.90852L78.6952 7.82852H78.6502L76.0942 12.0855H75.1582V6.47852Z" fill="black"/>
<path d="M81.1868 11.8517C80.8358 11.6087 80.5928 11.2577 80.4668 10.7897L81.2588 10.4748C81.3308 10.7627 81.4568 10.9968 81.6548 11.1678C81.8528 11.3388 82.0778 11.4197 82.3478 11.4197C82.6358 11.4197 82.8788 11.3298 83.0858 11.1497C83.2928 10.9697 83.3918 10.7447 83.3918 10.4837C83.3918 10.3127 83.3378 10.1507 83.2388 10.0067C83.1398 9.86275 83.0048 9.74575 82.8338 9.66475C82.6628 9.58375 82.4738 9.53875 82.2668 9.53875H81.8078V8.78275H82.2218C82.5008 8.78275 82.7348 8.70175 82.9238 8.54875C83.1128 8.39575 83.2028 8.18875 83.2028 7.92775C83.2028 7.69375 83.1128 7.50475 82.9418 7.35175C82.7708 7.19875 82.5458 7.12675 82.2848 7.12675C82.0508 7.12675 81.8528 7.19875 81.6908 7.33375C81.5288 7.47775 81.4208 7.63975 81.3578 7.83775L80.6018 7.52275C80.7098 7.21675 80.9078 6.93775 81.2048 6.70375C81.4928 6.46975 81.8618 6.34375 82.3028 6.34375C82.6448 6.34375 82.9418 6.40675 83.2028 6.54175C83.4638 6.67675 83.6708 6.85675 83.8238 7.09075C83.9768 7.32475 84.0488 7.58575 84.0488 7.87375C84.0488 8.41375 83.8148 8.81875 83.3378 9.07975V9.12475C83.6078 9.24175 83.8238 9.42175 83.9858 9.64675C84.1568 9.88075 84.2378 10.1597 84.2378 10.4837C84.2378 10.7987 84.1568 11.0957 83.9948 11.3567C83.8328 11.6177 83.6078 11.8247 83.3198 11.9687C83.0318 12.1217 82.7078 12.1937 82.3568 12.1937C81.9248 12.2117 81.5378 12.0947 81.1868 11.8517Z" fill="black"/>
</g>
</g>
<defs>
<clipPath id="clip0_2955_5919">
<rect width="122.4" height="36" fill="white" transform="translate(0 0.268555)"/>
</clipPath>
</defs>
</svg>
