<svg width="50" height="50" viewBox="0 0 50 50" fill="none" xmlns="http://www.w3.org/2000/svg">
<rect width="50" height="50" rx="25" fill="#3F3F46"/>
<path d="M14.4431 24.6077C14.4431 25.3746 14.3565 25.9997 14.1833 26.4844C13.9188 27.2194 13.4826 27.7871 12.8749 28.1825C12.2897 28.5619 11.5954 28.7533 10.7937 28.7533C9.48851 28.7533 8.48798 28.3116 7.79049 27.4299C7.26296 26.7602 7 25.9614 7 25.0334C7 24.005 7.30946 23.1408 7.92517 22.4408C8.62587 21.6436 9.60395 21.2466 10.8594 21.2466C11.698 21.2466 12.4083 21.4602 12.992 21.886C13.4073 22.1905 13.7632 22.6369 14.0583 23.2285L12.3089 23.9396C12.1598 23.6159 11.985 23.3736 11.7878 23.211C11.504 22.983 11.1641 22.8682 10.7713 22.8682C9.96954 22.8682 9.40994 23.2779 9.09567 24.0975C8.97702 24.3988 8.91769 24.7113 8.91769 25.0318C8.91769 25.7015 9.13095 26.258 9.55906 26.706C9.87493 27.0377 10.2982 27.2035 10.8258 27.2035C11.2956 27.2035 11.6676 27.068 11.9417 26.7969C12.1229 26.6183 12.2416 26.3552 12.2977 26.0044H10.7728V24.6045H14.4415L14.4431 24.6077ZM22.7408 28.7437H18.4516V21.2785H20.3982V27.1317H22.7392V28.7437H22.7408ZM33.4453 21.2785L30.2464 28.7437H28.7312L25.5772 21.2785H27.6986L29.5056 25.8163L31.3287 21.2785H33.4453ZM42.9985 28.7437H40.5788L38.722 25.8896V28.7437H36.7754V21.2785H39.8076C40.6943 21.2785 41.3501 21.5431 41.7751 22.0725C42.118 22.4998 42.2914 23.0021 42.2914 23.5777C42.2914 24.2394 42.0941 24.7672 41.6981 25.161C41.4447 25.4129 41.0952 25.5883 40.6525 25.6871L43 28.7421L42.9985 28.7437ZM40.2436 23.7403C40.2436 23.4884 40.1508 23.2747 39.9663 23.1025C39.7932 22.9399 39.5127 22.8586 39.1277 22.8586H38.7829V24.63H39.1277C39.5174 24.63 39.798 24.5487 39.9663 24.3861C40.1508 24.2091 40.2436 23.9938 40.2436 23.7403Z" fill="white"/>
</svg>
