<svg width="0" height="0" class="hidden">
  <symbol xmlns="http://www.w3.org/2000/svg" viewBox="0 0 93 20" id="glvr_menu">
    <path d="M19.5978 8.59678C19.5978 10.5584 19.3776 12.157 18.9372 13.3968C18.2643 15.2768 17.155 16.7286 15.6094 17.74C14.1209 18.7106 12.355 19.2 10.3159 19.2C6.99631 19.2 4.45152 18.0703 2.67752 15.8151C1.33581 14.1023 0.666992 12.0591 0.666992 9.68563C0.666992 7.05523 1.45408 4.84485 3.02009 3.05455C4.80225 1.01546 7.28994 0 10.4831 0C12.616 0 14.4226 0.546474 15.9071 1.63534C16.9633 2.41427 17.8687 3.55617 18.6191 5.06916L14.1698 6.88802C13.7905 6.06015 13.346 5.44026 12.8444 5.02429C12.1226 4.44111 11.258 4.14749 10.2588 4.14749C8.21975 4.14749 6.79648 5.19558 5.99716 7.29176C5.69538 8.06254 5.54448 8.86186 5.54448 9.68156C5.54448 11.3944 6.08686 12.8177 7.17573 13.9636C7.97914 14.8119 9.05578 15.236 10.3975 15.236C11.5924 15.236 12.5385 14.8894 13.2359 14.1961C13.6967 13.7393 13.9985 13.0664 14.1412 12.1692H10.2629V8.58862H19.5938L19.5978 8.59678ZM40.7023 19.1755H29.7932V0.0815633H34.7441V15.0525H40.6982V19.1755H40.7023ZM67.9282 0.0815633L59.7922 19.1755H55.9384L47.9167 0.0815633H53.312L57.9081 11.688L62.5449 0.0815633H67.9282ZM92.2258 19.1755H86.0719L81.3494 11.8756V19.1755H76.3985V0.0815633H84.1104C86.3656 0.0815633 88.0335 0.758538 89.1143 2.11248C89.9869 3.20544 90.4274 4.49005 90.4274 5.96227C90.4274 7.65471 89.9259 9.00459 88.9184 10.0119C88.2741 10.6562 87.3851 11.1048 86.2594 11.3577L92.2299 19.1715L92.2258 19.1755ZM85.2196 6.37826C85.2196 5.73391 84.983 5.18742 84.514 4.74699C84.0737 4.331 83.3599 4.12303 82.3812 4.12303H81.5044V8.65386H82.3812C83.3721 8.65386 84.0858 8.44589 84.514 8.0299C84.983 7.57722 85.2196 7.02668 85.2196 6.37826Z"></path>
  </symbol>
  <symbol xmlns="http://www.w3.org/2000/svg" viewBox="0 0 161 20" id="bb_menu">
    <path fill-rule="evenodd" clip-rule="evenodd" d="M2.57823 8.71489C3.61657 7.08131 5.40905 6.26141 7.30373 6.26134C11.0239 6.26134 13.5871 9.36266 13.5871 13.0185C13.5869 16.6332 11.0585 19.7195 7.30373 19.7195C5.47035 19.7194 3.80662 18.9716 2.72741 17.453C2.67426 17.3791 2.62545 17.3047 2.57639 17.2286V19.4443H0.666992V0H2.57823V8.71489ZM7.00537 8.07414C4.20114 8.07423 2.47195 10.2315 2.47184 12.9892C2.4698 15.6852 4.13151 17.8784 6.97663 17.8785C9.79127 17.8785 11.5945 15.7964 11.5945 12.9892C11.5944 10.2705 9.85261 8.07414 7.00537 8.07414Z"></path>
    <path d="M21.9174 13.9491C21.9174 16.1007 23.1007 17.8761 25.3859 17.8761C27.7078 17.8761 28.8831 16.1459 28.8831 13.9491V6.53464H30.7943V14.0334C30.7943 17.2968 28.7094 19.7176 25.3859 19.7176C22.1114 19.7176 19.9774 17.2495 19.9774 14.0334V6.53464H21.9174V13.9491Z"></path>
    <path fill-rule="evenodd" clip-rule="evenodd" d="M64.3571 6.26134C68.112 6.26134 71.0225 9.15292 71.0225 12.9342C71.0225 16.7174 68.1426 19.7176 64.3571 19.7176C60.5859 19.7176 57.6917 16.7008 57.6916 12.9342C57.6916 9.18173 60.6328 6.26139 64.3571 6.26134ZM64.3571 8.10287C61.5956 8.10292 59.6866 10.2029 59.6866 12.936C59.6866 15.6979 61.5425 17.8516 64.3571 17.8516C67.1574 17.8516 69.0563 15.6917 69.0563 12.936C69.0563 10.2028 67.1104 8.10287 64.3571 8.10287Z"></path>
    <path d="M132.796 13.9491C132.796 16.1007 133.98 17.876 136.265 17.8761C138.587 17.8761 139.762 16.1459 139.762 13.9491V6.53464H141.673V14.0334C141.673 17.2968 139.589 19.7176 136.265 19.7176C132.99 19.7176 130.857 17.2495 130.857 14.0334V6.53464H132.796V13.9491Z"></path>
    <path fill-rule="evenodd" clip-rule="evenodd" d="M154.67 6.25951C158.715 6.26362 161.272 9.70774 160.544 13.7027H150.021C150.375 16.3206 152.269 17.8986 154.861 17.9048C156.563 17.8802 157.804 17.2677 158.685 16.2033L159.916 17.4652C158.714 18.8216 157.002 19.7176 154.834 19.7176C150.715 19.7093 148.06 16.5361 148.06 12.9604C148.06 9.01295 151.052 6.25958 154.67 6.25951ZM154.616 8.04724C151.99 8.0493 150.405 9.64583 150.029 12.0562L158.81 12.0586C158.632 9.59472 157.086 8.04525 154.616 8.04724Z"></path>
    <path fill-rule="evenodd" clip-rule="evenodd" d="M104.014 8.71489C104.067 8.63283 104.12 8.55277 104.177 8.47277C104.686 7.76791 105.338 7.2234 106.132 6.83911C106.924 6.45488 107.793 6.26138 108.739 6.26134C109.923 6.26134 110.988 6.55948 111.936 7.15337C112.882 7.7493 113.635 8.5545 114.191 9.56962C114.747 10.5868 115.025 11.7358 115.025 13.0161C115.025 14.2799 114.751 15.4147 114.205 16.4216C113.659 17.4285 112.907 18.23 111.951 18.8238C110.994 19.4198 109.925 19.7158 108.742 19.7158C107.758 19.7158 106.875 19.514 106.092 19.1111C105.31 18.7083 104.668 18.1536 104.167 17.4487C104.114 17.3747 104.065 17.3009 104.018 17.225V19.4443H102.102V0H104.014V8.71489ZM108.437 8.07414C107.544 8.07414 106.757 8.28328 106.074 8.70449C105.391 9.12577 104.858 9.70379 104.476 10.4354C104.094 11.1669 103.901 12.0194 103.901 12.9892C103.901 13.9407 104.094 14.7876 104.476 15.5295C104.858 16.2713 105.385 16.8468 106.06 17.2598C106.736 17.6727 107.519 17.8785 108.41 17.8785C109.322 17.8785 110.123 17.6729 110.814 17.2598C111.507 16.8467 112.049 16.2713 112.439 15.5295C112.832 14.7876 113.026 13.9406 113.026 12.9892C113.026 12.0195 112.83 11.1689 112.439 10.4354C112.047 9.7038 111.505 9.12577 110.814 8.70449C110.121 8.28326 109.33 8.07419 108.437 8.07414Z"></path>
    <path d="M41.9621 6.53647H47.5607V1.0993H49.5007V6.53647H52.724V8.26673H49.5007V19.4443H47.5607V8.26673H41.9621V19.4443H40.0228V8.26673H36.7726V6.53647H40.0228V1.0993H41.9621V6.53647Z"></path>
    <path d="M83.9371 6.26134C86.8804 6.26142 88.9897 8.59603 88.9897 11.5347V19.4443H87.0498V11.8636C87.0498 9.64836 85.6745 8.04489 83.4181 8.04479C81.2433 8.04479 79.6202 9.60472 79.62 11.8342V19.4425H77.7088V6.53647H79.62V8.43364C80.6238 6.97458 82.1916 6.26134 83.9371 6.26134Z"></path>
    <path d="M123.647 19.4443H121.736V0H123.647V19.4443Z"></path>
  </symbol>
  <symbol xmlns="http://www.w3.org/2000/svg" viewBox="0 0 97 33" id="toys_menu">
    <path d="M72.4051 12.2889H71.0742V11.6123H74.5106V12.2889H73.1777V15.9596H72.4051V12.2889ZM85.1446 15.4112C84.8003 15.4112 84.408 15.227 84.1919 14.9328L83.6394 15.4492C83.9816 15.8535 84.5661 16.0676 85.1306 16.0676C85.983 16.0676 86.7138 15.6133 86.7138 14.6806C86.7138 13.828 86.0012 13.5818 85.4427 13.4097C84.9524 13.2556 84.6141 13.1395 84.6141 12.7412C84.6141 12.3189 85.0245 12.1467 85.3808 12.1467C85.6889 12.1467 86.0133 12.3069 86.1792 12.521L86.6836 11.9686C86.3513 11.6564 85.8551 11.5023 85.4187 11.5023C84.6321 11.5023 83.8295 11.8946 83.8295 12.7792C83.8295 13.5898 84.3999 13.846 84.9263 14.0121C85.4727 14.1843 85.9271 14.3144 85.9271 14.7687C85.9292 15.233 85.5048 15.4112 85.1446 15.4112ZM81.1376 15.9576H81.9102V14.0722L83.5413 11.6103H82.6446L81.5399 13.4397L80.447 11.6103H79.5023L81.1337 14.0722V15.9576H81.1376ZM74.7788 13.7719C74.7788 12.3789 75.7657 11.5023 77.1045 11.5023C78.4596 11.5023 79.4483 12.3789 79.4483 13.7719C79.4483 15.129 78.4596 16.0676 77.1045 16.0676C75.7675 16.0697 74.7788 15.129 74.7788 13.7719ZM75.6194 13.7719C75.6194 14.6986 76.226 15.3751 77.1107 15.3751C78.0013 15.3751 78.6077 14.6986 78.6077 13.7719C78.6077 12.8753 78.0132 12.1828 77.1107 12.1828C76.2159 12.1848 75.6194 12.8773 75.6194 13.7719ZM96.567 26.8396C96.641 27.0237 96.7532 26.7856 96.8552 26.8417L96.8752 26.8837L96.8991 26.7256C96.7892 26.7616 96.6531 26.8837 96.567 26.8396ZM96.2328 26.4614C96.2587 26.5334 96.1808 26.5334 96.3008 26.4754C96.2947 26.4673 96.2907 26.4634 96.2868 26.4574C96.2747 26.4614 96.2609 26.4634 96.2328 26.4614ZM96.2868 26.4594C96.2427 26.4015 96.3428 26.4474 96.2868 26.4594V26.4594ZM96.1007 26.4574C96.0807 26.4153 96.0126 26.4133 96.0326 26.3793C95.9626 26.4254 95.9826 26.4673 96.0346 26.5334L96.1007 26.4574ZM95.9846 26.6815L96.0186 26.6495C96.0087 26.6315 95.9986 26.6256 95.9846 26.6815ZM96.0526 26.6234C96.0526 26.6815 96.0625 26.6256 96.0906 26.5795L96.0186 26.6495C96.0326 26.6776 96.0425 26.7395 96.0526 26.6234ZM96.1408 26.6034C96.1867 26.6394 96.2427 26.6594 96.1786 26.7355C96.3149 26.6896 96.2769 26.5595 96.1408 26.6034ZM96.5651 27.0397L96.627 27.0878L96.6671 27.0178C96.6452 27.0538 96.553 26.9818 96.5651 27.0397ZM95.6643 26.5975C95.6323 26.5735 95.5763 26.5554 95.5643 26.4954C95.5662 26.5375 95.6044 26.5995 95.6163 26.6515L95.6643 26.5975ZM95.6163 26.6515L95.5443 26.7316C95.6183 26.7296 95.6283 26.6956 95.6163 26.6515ZM95.9986 26.8957L96.1127 26.7336L95.9745 26.9017L95.9986 26.8957ZM95.2561 26.5334L95.2881 26.4333L95.226 26.5856L95.2561 26.5334ZM95.052 26.5775C95.0759 26.4954 94.9879 26.4513 95.016 26.3993C94.9618 26.4214 94.9238 26.4954 94.8898 26.5595C94.9298 26.5215 94.9798 26.5233 95.052 26.5775ZM94.8297 26.6596C94.8497 26.6376 94.8678 26.6014 94.8898 26.5615C94.8678 26.5834 94.8479 26.6115 94.8297 26.6596ZM95.3261 26.6234L95.374 26.7336L95.406 26.7316C95.4102 26.7417 95.4141 26.7456 95.4141 26.7316H95.406C95.3961 26.7075 95.374 26.6455 95.3261 26.6234ZM95.3042 26.7377C95.3141 26.7377 95.334 26.7377 95.3762 26.7377L95.374 26.7336C95.338 26.7355 95.3141 26.7377 95.3042 26.7377ZM95.7524 27.0558C95.7765 26.9739 95.7144 26.9258 95.7725 26.8196C95.7344 26.8898 95.6444 26.9717 95.7524 27.0558ZM95.5623 26.8817C95.5563 26.8516 95.5342 26.8097 95.5542 26.7755L95.4723 26.8677L95.4381 26.8637L95.4341 26.9118L95.4723 26.8696L95.5623 26.8817ZM94.9919 26.7456C94.9618 26.7996 94.9217 26.8097 94.8777 26.8257C94.9298 26.8417 94.9818 26.8457 95.0298 26.8396C95.032 26.8016 95.0439 26.7336 94.9919 26.7456ZM95.18 26.7516L95.172 26.7595C95.178 26.7676 95.1819 26.7715 95.18 26.7516ZM94.4355 26.8857H94.4274L94.4375 26.9058L94.4355 26.8857ZM95.1161 26.8057C95.09 26.8218 95.0619 26.8317 95.0298 26.8378C95.0279 26.8556 95.0298 26.8657 95.0399 26.8578C95.0819 26.8756 95.1 26.8435 95.1161 26.8057ZM94.7116 26.7296C94.7336 26.7516 94.7597 26.7676 94.7856 26.7836C94.7597 26.7496 94.7136 26.6995 94.7116 26.7296ZM95.156 26.7296L95.16 26.7235C95.1459 26.7015 95.1479 26.7116 95.156 26.7296ZM95.172 26.7595C95.1659 26.7516 95.16 26.7417 95.156 26.7296C95.1378 26.7496 95.1279 26.7796 95.1161 26.8057C95.1378 26.7937 95.156 26.7777 95.172 26.7595ZM94.3714 27.0678C94.4094 27.122 94.5797 27.1758 94.5215 27.282C94.4173 27.352 94.4234 27.2581 94.3613 27.21C94.4274 27.336 94.2474 27.4201 94.3012 27.6103L94.3894 27.5281C94.3955 27.5583 94.3674 27.6103 94.3973 27.6343C94.3874 27.5281 94.4715 27.4161 94.5716 27.5182C94.6416 27.428 94.5395 27.0878 94.4375 26.9037C94.4394 26.9517 94.4454 26.9938 94.3714 27.0678ZM94.4915 26.7496C94.4394 26.8097 94.4333 26.8497 94.4355 26.8857L94.6095 26.8756L94.5996 26.8938L94.6317 26.8756C94.5896 26.8637 94.5555 26.8257 94.4915 26.7496ZM94.7917 26.8677C94.8218 26.8435 94.8497 26.8336 94.8777 26.8257C94.8457 26.8156 94.8137 26.8016 94.7838 26.7856L94.7877 26.7915V26.7937C94.7957 26.8075 94.7998 26.8156 94.7917 26.8075L94.7877 26.8097C94.7897 26.8257 94.7877 26.8396 94.7856 26.8538C94.7336 26.8378 94.7737 26.8236 94.7877 26.8097V26.7915L94.7856 26.7897L94.6295 26.8756C94.6677 26.8857 94.7096 26.8777 94.7856 26.8538C94.7757 26.9717 94.6976 27.0338 94.7678 27.1499C94.8696 27.1278 94.8257 27.0437 94.8797 26.9857C94.7217 27.0379 94.9217 26.9157 94.7917 26.8677ZM95.6984 27.316C95.6924 27.306 95.6903 27.298 95.6903 27.2901C95.6804 27.306 95.6784 27.316 95.6984 27.316ZM95.6784 27.1499L95.6683 27.1679C95.5963 27.1378 95.4923 27.0059 95.5022 26.9877C95.5364 27.0878 95.5623 27.1598 95.6204 27.2559C95.6303 27.2379 95.6343 27.19 95.6742 27.198C95.7124 27.2278 95.6841 27.2539 95.6903 27.2901C95.7102 27.2559 95.7605 27.1958 95.6784 27.1499ZM95.0759 27.1598L95.16 27.25L95.1479 27.19C95.23 27.2019 95.2019 27.1319 95.2059 27.0838L95.0759 27.1598ZM94.4013 26.7075L94.3475 26.8898L94.4013 26.8317V26.7075ZM94.1772 26.8336L94.2233 26.8696L94.2153 26.7636L94.1772 26.8336ZM92.3939 27.2079C92.3358 27.1719 92.2919 27.1598 92.2539 27.162C92.3279 27.216 92.3959 27.3079 92.3939 27.2079ZM92.2539 27.162C92.2001 27.1198 92.1437 27.0999 92.1077 27.1879C92.1178 27.198 92.1277 27.2019 92.1398 27.21C92.1738 27.1859 92.206 27.162 92.2539 27.162ZM93.743 27.4201C93.7409 27.392 93.7448 27.372 93.749 27.3621C93.7448 27.376 93.7409 27.3942 93.743 27.4201ZM93.5607 26.9778C93.5447 26.9658 93.5268 26.9578 93.5069 26.9517C93.5148 26.9578 93.5328 26.9677 93.5607 26.9778ZM93.5069 26.9497C93.4988 26.9436 93.4926 26.9379 93.4948 26.9337C93.4988 26.9197 93.5308 26.9197 93.4948 26.9337C93.4827 26.9379 93.4687 26.9418 93.4428 26.9478C93.4647 26.9418 93.4847 26.9458 93.5069 26.9497ZM93.7509 27.36C93.7549 27.352 93.7608 27.352 93.7648 27.3461C93.7608 27.3481 93.7549 27.352 93.7509 27.36ZM94.1532 26.9778C94.0391 26.9436 93.961 27.1339 93.887 27.2278L93.9871 27.3279C93.9671 27.5302 93.821 27.3261 93.7648 27.3461C93.799 27.318 93.8591 27.3481 93.869 27.3902L93.821 27.23C93.691 27.1839 93.6168 27.3261 93.5447 27.4201C93.6329 27.4622 93.4647 27.5342 93.5407 27.6402L93.6008 27.6103C93.6388 27.6624 93.5848 27.7223 93.5589 27.7763C93.3427 27.6883 92.9944 27.8505 92.9022 27.7322C92.9503 27.7684 93.0183 27.7203 93.0464 27.6663L92.9424 27.6121C93.0183 27.5943 93.1004 27.7304 93.2045 27.6584C93.1685 27.5583 93.2266 27.4041 93.1184 27.2741C92.8763 27.1459 92.9865 27.5722 92.7222 27.5722C92.7041 27.6082 92.7482 27.3942 92.62 27.4743C92.4639 27.6082 92.3799 27.8665 92.4198 28.0906C92.48 28.0125 92.6022 27.8544 92.652 28.0125C92.5921 28.0906 92.474 28.1547 92.4861 28.2607C92.3779 28.0866 92.6121 28.1806 92.4879 28.0405C92.438 28.0546 92.4279 28.1206 92.4099 28.1566C92.4299 28.0726 92.3419 28.0346 92.318 27.9925C92.1538 28.0206 92.0436 27.9565 91.8656 27.9725C91.8755 27.9885 91.8775 27.9925 91.8615 27.9725H91.8656C91.8514 27.9466 91.8215 27.8904 91.8176 27.8443C91.7414 27.9106 91.6714 28.2148 91.7254 28.3248C91.6273 28.3509 91.6034 28.2628 91.5294 28.3309C91.6975 28.4729 91.4973 28.3068 91.5173 28.4909C91.4352 28.5289 91.4693 28.4088 91.4212 28.3748C91.4111 28.3968 91.3872 28.4628 91.3951 28.5109C91.315 28.3847 91.4293 28.1347 91.3352 27.9885C91.2711 27.8946 91.0869 27.7884 91.103 27.7785C90.9368 27.8865 91.3292 28.4049 91.2612 28.7209C91.239 28.8271 91.157 28.625 91.117 28.623C90.9728 28.4769 90.977 28.7911 90.8729 28.7431L90.9228 28.6329C90.8988 28.593 90.7746 28.677 90.7667 28.7431C90.7507 28.6849 90.7728 28.4229 90.7167 28.3629C90.5446 28.3669 90.4584 28.7251 90.5064 28.8991C90.5064 28.8991 90.6265 28.5991 90.6585 28.6711C90.7327 28.8352 90.7127 28.8673 90.6206 29.0233C90.5905 29.0754 90.3903 29.0793 90.3785 29.0194C90.3725 28.9891 90.4865 28.9472 90.4325 28.8732C90.3344 28.9033 90.3765 28.8592 90.2944 28.8032C90.3664 28.593 90.4726 28.0666 90.5005 27.8224C90.5005 27.8224 90.4406 27.9505 90.4004 27.9466C90.3765 27.9444 90.3524 27.8665 90.3524 27.8665C90.2183 28.0164 90.3205 28.7071 90.1983 28.785C90.0681 28.8673 90.0602 28.4448 90.0681 28.3788C90.0581 28.3807 90.0501 28.3869 90.042 28.3908C90.0482 28.4349 90.0501 28.4788 90.0462 28.5229C90.0242 28.7251 89.918 28.8833 89.7479 28.9713C89.7339 28.9792 89.7179 28.9852 89.7018 28.9891C88.7752 29.2834 87.8565 29.5277 86.97 29.7158C86.1913 29.8839 85.3707 30.0299 84.5321 30.1541C83.9816 30.2342 83.4713 30.2742 83.0089 30.2742C82.7488 30.2742 82.5045 30.2621 82.2745 30.2362C82.2644 30.2342 82.2563 30.2342 82.2464 30.2322C81.0194 29.9779 80.9114 29.2573 80.9555 28.8513C80.9976 28.4709 81.1736 28.0566 81.4798 27.6183C81.766 27.2061 82.0963 26.8117 82.4586 26.4474C82.7828 26.1212 83.1011 25.8309 83.4033 25.5826C83.3113 25.5848 83.2152 25.5848 83.1129 25.5848C82.4466 25.5907 81.752 25.5808 81.0455 25.5547C81.0375 25.5547 81.0314 25.5547 81.0235 25.5528L80.1708 25.4586C80.1467 25.4566 80.1249 25.4527 80.1028 25.4487C78.0053 26.9458 74.6288 28.3248 73.0056 28.8531C73.0036 28.8531 72.9975 28.8552 72.9896 28.8552C72.8754 28.8972 72.7574 28.9332 72.6292 28.9674C72.185 29.0833 71.7846 29.1434 71.4425 29.1434C71.4403 29.1434 71.4403 29.1434 71.4385 29.1434C71.4043 29.1434 71.3723 29.1394 71.3384 29.1373C71.2882 29.1394 71.2383 29.1434 71.1903 29.1434C71.1881 29.1434 71.1881 29.1434 71.1863 29.1434C70.8038 29.1434 70.4917 29.0554 70.2555 28.8833C70.0413 28.7271 69.8673 28.5449 69.7371 28.3408C69.607 28.1386 69.521 27.9324 69.4749 27.7243C69.4329 27.5302 69.413 27.376 69.413 27.2559C69.413 26.9998 69.3829 26.6335 69.499 26.1351C69.2747 26.155 69.0447 26.1732 68.8024 26.1831C67.8277 26.2213 66.5648 25.837 65.8823 25.5727L64.6714 26.5154C64.6633 26.5233 64.6574 26.5334 64.6473 26.5415L64.5193 26.6394C64.4311 26.7075 64.3411 26.7777 64.247 26.8477C63.6807 27.2599 63.1022 27.6363 62.5258 27.9666C61.9154 28.3149 61.327 28.5229 60.7764 28.587C60.7305 28.593 60.6844 28.5949 60.6385 28.5949C60.3141 28.5949 60.0159 28.4589 59.7516 28.1867C59.4696 27.8985 59.3034 27.5702 59.2633 27.216C59.2214 26.8538 59.3054 26.4375 59.5137 25.975C59.7077 25.5466 59.9518 25.1204 60.2421 24.7082C60.2961 24.6321 60.3721 24.528 60.4603 24.408C58.4508 25.939 56.2832 27.2399 54.9001 27.7383C54.8981 27.7383 54.8641 27.7443 54.8081 27.7524C54.6279 27.8105 54.4499 27.8564 54.2597 27.9064C54.1936 27.9244 54.1256 27.9405 54.0555 27.9585C53.5892 28.0805 53.1708 28.1426 52.8105 28.1426C52.4022 28.1426 52.0721 28.0485 51.8239 27.8665C51.5998 27.7003 51.4157 27.5081 51.2796 27.2959C51.1433 27.0838 51.0513 26.8657 51.0033 26.6455C50.9592 26.4414 50.9392 26.2792 50.9392 26.1511C50.9392 25.891 50.9752 25.6447 51.0452 25.4145C50.9331 25.4766 50.8231 25.5346 50.7151 25.5907C50.3187 25.7949 50.0426 25.923 49.8705 25.979C49.7103 26.0492 49.5082 26.1271 49.2719 26.2112C49.0638 26.2832 48.8417 26.3712 48.6136 26.4735C48.5735 26.4913 48.5313 26.4994 48.4874 26.4994C48.3913 26.4994 48.2111 26.4673 48.0831 26.2472C48.0149 26.1351 47.9811 26.0211 47.9811 25.911C47.9811 25.6107 48.1371 25.4867 48.2311 25.4406C48.2412 25.4345 48.2513 25.4305 48.2631 25.4266C48.4413 25.3605 48.6255 25.2885 48.8616 25.1965C49.0458 25.1224 49.2159 25.0484 49.364 24.9742C49.9505 24.694 50.4649 24.4139 50.8931 24.1376C51.3955 23.8374 51.7658 23.5713 51.992 23.3431C52.206 23.1289 52.3463 22.9388 52.4084 22.7746C52.4964 22.5424 52.5824 22.3624 52.6744 22.2242C52.8105 22.0221 53.0128 21.9101 53.2468 21.9101C53.4891 21.9101 53.7092 21.972 53.9015 22.096C54.0656 22.2022 54.2597 22.4123 54.2597 22.8087C54.2597 22.9469 54.2076 23.0968 54.0977 23.281L53.8152 23.7013C53.6973 23.8775 53.5791 24.0856 53.4671 24.3239C53.355 24.5601 53.2549 24.8162 53.1708 25.0822C53.0907 25.3344 53.0488 25.5767 53.0488 25.8049C53.0488 26.0071 53.1188 26.1752 53.267 26.3232C53.4131 26.4695 53.6653 26.5435 54.0195 26.5455C54.1515 26.5455 54.5999 26.4535 55.0162 26.3574C56.053 26.0231 57.372 25.3305 58.9613 24.2798C59.3335 24.0336 59.7558 23.7614 60.164 23.4991C60.9846 22.9708 61.8353 22.4244 62.3217 22.0582C62.4257 21.9799 62.5098 21.952 62.5758 21.972C62.776 21.9279 63.0501 21.9321 63.2503 21.9981C63.7746 22.1702 64.009 22.7867 63.9467 23.1528C63.9188 23.317 63.7307 23.6034 62.7659 24.9643C62.4336 25.4327 62.1195 25.875 61.9475 26.139L61.8954 26.2173C61.8393 26.3014 61.6793 26.5415 61.6472 26.6616C61.6051 26.8036 61.8733 26.7737 61.9413 26.7656C62.3757 26.7156 62.9 26.4634 63.5005 26.0211L65.5221 24.2478C65.532 24.2377 65.544 24.2298 65.5559 24.2217C65.7082 24.1237 66.0585 24.0296 66.4147 24.2897L66.5708 24.4058C66.9671 24.7041 67.2533 24.9183 68.212 25.0243C68.6123 25.0684 69.2067 25.0284 69.9112 24.9102C70.1054 24.3999 70.3396 23.8555 70.5578 23.4491C70.5597 23.4451 70.5597 23.4412 70.5617 23.437C71.024 22.4384 71.7186 21.6918 72.6274 21.2135C73.0036 21.0175 73.468 20.9113 73.8683 20.9352C74.5386 20.9734 75.0711 21.2914 75.3272 21.8079C75.5875 22.3322 75.5195 22.9629 75.1352 23.5332C74.3567 24.688 73.2957 25.1263 72.2751 25.5288C72.2249 25.5488 72.1529 25.5727 72.0649 25.6008C72.0447 25.6068 72.0248 25.6147 72.0048 25.6208C71.9187 25.8129 71.8406 26.015 71.7726 26.2272C71.6946 26.4713 71.6547 26.7057 71.6547 26.9258C71.6547 27.1238 71.7245 27.2919 71.8707 27.4361C71.9909 27.5583 72.1909 27.6264 72.4532 27.6442C72.6092 27.6242 72.8754 27.5702 73.1496 27.5103C74.6267 27.0999 77.0747 26.0532 78.5136 25.1823C78.6216 25.1184 78.7238 25.0504 78.8279 24.9843C78.8079 24.9663 78.7857 24.9503 78.7658 24.9323C78.7559 24.9242 78.7478 24.9141 78.7398 24.9042C78.6137 24.7482 78.5436 24.616 78.5175 24.4859C78.5116 24.456 78.5096 24.4258 78.5136 24.3959C78.5478 24.0917 78.7377 23.7715 79.098 23.4131C79.4222 23.0929 79.8006 22.8006 80.225 22.5466C80.6392 22.2984 81.0635 22.0861 81.4899 21.916C81.9501 21.7319 82.3125 21.6579 82.5947 21.69C82.959 21.7278 83.087 21.9621 83.1311 22.0982C83.1831 22.2602 83.1992 22.4283 83.181 22.5964C83.157 22.8207 82.5006 23.5513 82.1303 23.9455C82.1705 23.9515 82.2144 23.9596 82.2644 23.9655L82.8447 24.0296C83.0969 24.0575 83.3892 24.0696 83.7075 24.0676C84.0318 24.0676 84.376 24.0535 84.7322 24.0276C85.0704 24.0015 85.3968 23.9556 85.7069 23.8894C85.739 23.8815 85.769 23.8815 85.8011 23.8854C85.9672 23.9036 86.1112 24.0015 86.2273 24.1718C86.3353 24.3318 86.3794 24.498 86.3614 24.67C86.3135 25.1184 86.0712 25.4066 85.6788 25.4907C85.4988 25.5947 85.2647 25.7448 84.9844 25.9371C84.6842 26.1451 84.392 26.3854 84.1177 26.6495C83.8356 26.9218 83.5813 27.1999 83.3651 27.4743C83.1731 27.7183 83.0649 27.9424 83.0431 28.1446C83.0271 28.2828 83.069 28.3888 83.1792 28.4889C83.2532 28.557 83.4593 28.677 84.0158 28.7391C84.6602 28.8091 85.3106 28.8032 85.947 28.7231C86.5956 28.641 87.1901 28.5368 87.7145 28.4167C88.349 28.2807 88.9493 28.1125 89.5038 27.9205C89.5438 27.9064 89.5879 27.9003 89.6298 27.9064C89.636 27.9064 89.6439 27.9084 89.652 27.9106C89.6639 27.8904 89.6779 27.8884 89.6959 27.9205C89.7018 27.9225 89.708 27.9244 89.7139 27.9264C89.724 27.8985 89.736 27.8724 89.7521 27.8505C89.7058 27.7603 89.922 27.7344 89.922 27.7383C89.916 27.7803 89.9621 27.7304 90.0221 27.7183C90.2784 27.6703 90.3324 27.3742 90.5727 27.6022C90.5406 27.5801 90.4985 27.5761 90.4965 27.6242C90.6467 27.5801 90.8348 27.7282 90.9129 27.6121L90.8828 27.4942C90.9849 27.4181 91.0628 27.36 91.155 27.3481C91.155 27.3481 91.1091 27.2359 91.133 27.2118C91.2351 27.1117 91.5173 26.9697 91.6494 27.232C91.6613 27.1179 91.8255 27.1558 91.9056 27.18C91.9315 27.1879 91.9436 27.2799 91.9436 27.2799C92.0476 27.2959 92.1018 27.248 92.1538 27.2079C92.39 27.388 92.5341 27.1398 92.7102 27.126L92.7161 27.1558L92.8803 27.0538C92.8502 27.1558 92.9042 26.9838 92.9624 27.0018C93.0104 26.9418 93.1044 26.9557 93.1825 27.0118L93.2946 26.9998C93.1805 27.09 93.3267 27.1479 93.3526 27.266L93.4086 27.1598C93.4467 27.2118 93.3787 27.2599 93.4347 27.2781C93.4727 27.2061 93.6149 27.1879 93.6388 27.0579C93.6269 27.0277 93.6069 27.0037 93.5808 26.9838C93.5767 26.9917 93.5767 26.9899 93.5789 26.9818L93.5727 26.9757L93.5789 26.9778C93.5828 26.9658 93.5888 26.9436 93.5909 26.9276C93.5808 26.9258 93.5708 26.9236 93.5567 26.9218C93.5868 26.8957 93.5927 26.9076 93.5927 26.9276C93.6869 26.9397 93.6447 26.8957 93.6348 26.8435C93.7648 27.0138 93.803 26.8797 93.9129 27.0858C93.7709 26.8556 94.1432 27.0459 94.0433 26.8218C94.1331 27.0018 94.0811 26.8236 94.1532 26.9778ZM72.6913 24.1516C73.2558 23.8955 73.682 23.4991 74.0643 22.9469C74.1405 22.8387 74.2445 22.5484 73.9662 22.5365C73.9302 22.5345 73.8581 22.5644 73.7762 22.6706C73.3618 23.205 73.0556 23.6253 72.6913 24.1516ZM93.0945 27.1038C93.0464 27.0858 93.0225 27.0698 93.0923 27.1099C93.0923 27.1078 93.0945 27.1038 93.0945 27.1038ZM93.8831 26.8898C93.8769 26.8596 93.855 26.8196 93.8791 26.8137L93.801 26.8596C93.8409 26.8477 93.8609 26.8738 93.8831 26.8898ZM94.7116 27.5041C94.7217 27.4861 94.7375 27.4982 94.7456 27.48L94.7336 27.4201C94.6837 27.4341 94.6535 27.4861 94.7116 27.5041ZM94.0211 27.2278C94.0451 27.336 94.0892 27.2901 94.1451 27.2599C94.1412 27.262 94.1392 27.262 94.1352 27.262C94.1273 27.1099 94.0731 27.1699 94.0211 27.2278ZM94.1572 27.2559C94.1732 27.248 94.1912 27.2421 94.2092 27.246C94.2072 27.1819 94.1853 27.2359 94.1572 27.2559ZM93.3827 27.0419C93.4147 27.0658 93.3787 26.9017 93.4007 26.9418C93.4107 26.7996 93.2444 27.1378 93.3827 27.0419ZM94.0632 27.5601L94.1192 27.5783L94.0793 27.4482L94.0632 27.5601ZM93.7689 27.5241C93.711 27.5281 93.6447 27.5121 93.6548 27.5502L93.7529 27.5722C93.7448 27.5522 93.7549 27.5362 93.7689 27.5241C93.799 27.5221 93.8271 27.5142 93.839 27.4901C93.8229 27.4942 93.7889 27.5041 93.7689 27.5241ZM93.905 27.6143L94.0031 27.6382L93.9711 27.6143H93.905ZM92.636 27.7844C92.6542 27.7482 92.688 27.7243 92.6661 27.6823L92.5741 27.7383C92.5701 27.7864 92.6022 27.8083 92.636 27.7844ZM92.9904 28.0686L93.0264 27.9964C92.9944 27.9725 92.9883 27.9444 92.9663 27.9025L92.9904 28.0686ZM92.7442 28.0827C92.7422 28.1307 92.624 28.2407 92.7462 28.2067C92.7482 28.1606 92.8423 28.1046 92.7442 28.0827ZM90.0762 28.8451C89.9861 28.805 89.9762 28.8991 90.0482 29.0674C90.1783 29.1074 90.0381 28.8952 90.1603 28.9531C90.1742 28.8833 90.1342 28.8712 90.0762 28.8451ZM51.4956 18.8497C49.9645 20.2129 48.4754 21.4696 47.0703 22.5846C45.7273 23.6493 44.5906 24.5219 43.6919 25.1766C43.3194 26.8016 43.1574 28.2907 43.2095 29.6017L43.2296 30.1082C43.2395 30.3323 43.2055 30.5404 43.1295 30.7287C43.0313 30.9666 42.8052 31.1329 42.4549 31.2229C42.3509 31.2589 42.2207 31.2811 42.0686 31.2868C42.0467 31.289 42.0225 31.289 42.0006 31.289C41.5524 31.289 41.3141 31.0969 41.192 30.9346C41.0298 30.7206 40.9438 30.4743 40.9319 30.2022C40.9159 28.431 41.2421 26.4414 41.9046 24.2897C42.3969 22.6926 43.0174 21.0574 43.7579 19.414C43.718 19.4522 43.6778 19.4923 43.6379 19.5301C42.1487 20.9493 40.7015 22.2543 39.3387 23.4111C38.0316 24.5219 36.9249 25.4305 36.0501 26.1151C35.7319 27.7543 35.6199 29.2474 35.7161 30.5524L35.7539 31.0568C35.7699 31.2811 35.742 31.4911 35.6739 31.6812C35.5839 31.9233 35.3616 32.0976 35.0155 32.1957C34.9133 32.2356 34.7853 32.2617 34.6312 32.2738C34.5891 32.2756 34.5511 32.2777 34.5151 32.2777C34.0968 32.2777 33.8646 32.0976 33.7445 31.9474C33.5764 31.7392 33.4803 31.4951 33.4603 31.2249C33.4081 30.036 33.5123 28.7391 33.7625 27.36L33.6504 27.4201C33.4081 27.5522 33.094 27.7282 32.7196 27.9444C32.3375 28.1667 31.9132 28.3888 31.4609 28.607C31.0145 28.821 30.57 29.0172 30.1359 29.1915C29.6895 29.3716 29.2793 29.4836 28.9169 29.5277C28.5166 29.5758 28.1784 29.5216 27.9082 29.3695C27.6639 29.2314 27.4598 29.0613 27.2996 28.8651C27.1376 28.6689 27.0195 28.4628 26.9495 28.2526C26.8815 28.0546 26.8413 27.8964 26.8273 27.7723C26.7974 27.5081 26.8034 27.248 26.8455 26.9978C26.7933 27.0459 26.7373 27.0939 26.6813 27.1459C26.2369 27.5423 25.7286 27.9505 25.17 28.3588C24.6057 28.7712 24.0252 29.1493 23.4469 29.4796C22.8344 29.8279 22.244 30.038 21.6896 30.1021C21.6435 30.1082 21.5954 30.11 21.5495 30.11C21.2192 30.11 20.917 29.97 20.6488 29.6958C20.3626 29.4037 20.1965 29.0732 20.1543 28.713C20.1124 28.3487 20.1965 27.9284 20.4047 27.4622C20.5988 27.0318 20.845 26.6034 21.1352 26.1912C21.4152 25.7909 21.6977 25.4106 21.9758 25.0605C22.226 24.7442 22.4222 24.5199 22.5743 24.3759C22.5842 24.3577 22.5942 24.3439 22.6063 24.3298C22.6643 24.2559 22.7503 24.2096 22.8464 24.1997L22.9965 24.1817C23.2086 24.1558 23.4008 24.2056 23.5509 24.3279C23.617 24.3799 23.6991 24.48 23.7191 24.6481C23.741 24.8382 23.655 25.0543 23.4429 25.3465C23.2847 25.5607 23.1107 25.8049 22.9244 26.0692C22.7444 26.3253 22.5822 26.6014 22.4441 26.8876C22.3221 27.1398 22.278 27.3861 22.308 27.6382C22.33 27.8265 22.4022 27.9765 22.5282 28.1026C22.6722 28.2447 22.7784 28.2486 22.8464 28.2407C23.2788 28.1907 23.8051 27.9385 24.4076 27.4921C25.046 27.0198 25.6704 26.4855 26.265 25.905C26.9634 25.2264 27.6879 24.4738 28.4185 23.6653C28.4685 23.6093 28.5387 23.5731 28.6127 23.5652C28.8429 23.5371 29.0471 23.5593 29.2231 23.6313C29.3853 23.6993 29.5894 23.8654 29.6375 24.2697C29.6535 24.4058 29.6195 24.566 29.5314 24.7581C29.5275 24.7662 29.5233 24.7762 29.5172 24.7842C29.4933 24.8261 29.4153 24.9924 29.2352 25.5808C29.107 25.999 29.0649 26.4094 29.1111 26.8016C29.1191 26.8716 29.1371 26.9717 29.165 27.0999C29.1871 27.2079 29.2332 27.324 29.2992 27.4422C29.3612 27.5502 29.4434 27.6424 29.5493 27.7203C29.6234 27.7743 29.7555 27.7945 29.9296 27.7723C30.1879 27.7425 30.4741 27.6642 30.7823 27.5423C31.1145 27.4102 31.4488 27.266 31.771 27.1117C32.0912 26.9618 32.3994 26.8075 32.6836 26.6554C32.9559 26.5114 33.184 26.3934 33.3442 26.3174L34.0707 25.923C34.1229 25.7108 34.1749 25.4986 34.2329 25.2824C34.8193 23.1229 35.636 20.8913 36.6585 18.6516C37.6815 16.41 38.9003 14.1923 40.2812 12.0587C41.6604 9.9251 43.1195 7.98567 44.6145 6.29642C46.1157 4.60117 47.6488 3.19812 49.1718 2.12933C50.723 1.04053 52.2042 0.436076 53.5751 0.336003C54.3257 0.27996 54.9041 0.410057 55.2984 0.720287C55.7069 1.04253 55.9409 1.70101 56.017 2.73577C56.019 2.7578 56.017 2.78181 56.019 2.80383C56.5514 2.38351 57.0839 1.99523 57.6122 1.64897C59.1992 0.612208 60.7004 0.0597978 62.0735 0.00375626C62.828 -0.026266 63.4004 0.123845 63.7847 0.448086C64.1789 0.782333 64.3911 1.44082 64.4333 2.46557V2.48359C64.4712 3.4483 64.0949 4.60918 63.3104 5.93214C62.5497 7.2191 61.539 8.61013 60.3041 10.0692C59.0792 11.5183 57.6741 13.0174 56.1331 14.5245C54.59 16.0297 53.0308 17.4847 51.4956 18.8497ZM45.4953 15.9356C46.3679 14.3504 47.3345 12.7892 48.3893 11.2741C49.8403 9.18856 51.3636 7.29917 52.9147 5.65994C53.0688 5.49782 53.2229 5.3397 53.3771 5.18359C53.7294 4.34297 53.8874 3.62645 53.8455 3.05001C53.8253 2.7778 53.7312 2.54364 53.5591 2.33549C53.4351 2.18537 53.2169 2.10932 52.9147 2.10932C52.8666 2.10932 52.8146 2.11131 52.7626 2.11531C51.7839 2.18736 50.741 2.58567 49.6623 3.2982C48.5594 4.02673 47.4407 4.99546 46.3398 6.17433C45.231 7.36121 44.1343 8.74422 43.0793 10.2854C42.0186 11.8365 41.0298 13.4817 40.1392 15.177C39.2446 16.8802 38.454 18.6296 37.7855 20.3749C37.2371 21.8061 36.7827 23.209 36.4325 24.544C37.1611 23.9635 38.0057 23.247 38.9444 22.4083C40.2013 21.2855 41.5302 20.0226 42.8934 18.6535C43.7619 17.779 44.6325 16.8682 45.4953 15.9356ZM50.7851 17.953C52.1843 16.6381 53.6012 15.229 54.9923 13.7639C56.3712 12.3109 57.6242 10.8658 58.719 9.46676C59.8058 8.07774 60.6884 6.77076 61.343 5.5819C61.9795 4.42903 62.2855 3.46832 62.2556 2.72576C62.2455 2.45357 62.1595 2.21539 61.9934 2.00123C61.8652 1.83712 61.6312 1.75305 61.295 1.75305C61.2669 1.75305 61.2368 1.75305 61.2069 1.75505C60.2281 1.79308 59.1733 2.15534 58.0685 2.83385C57.2979 3.30821 56.5154 3.89463 55.7348 4.58115C55.5666 5.09352 55.3265 5.63993 55.0103 6.22036C54.2957 7.52933 53.3309 8.95439 52.1441 10.4555C50.9633 11.9486 49.6122 13.4937 48.1251 15.0469C47.8729 15.3091 47.6207 15.5693 47.3666 15.8295C46.7301 17.0404 46.1456 18.2692 45.6274 19.5003C45.0309 20.9113 44.5285 22.2984 44.1343 23.6212C44.8847 23.0648 45.7534 22.3763 46.716 21.5717C48.011 20.489 49.38 19.27 50.7851 17.953ZM55.6187 17.0724C55.3825 17.2186 55.1744 17.4046 54.9982 17.6229C54.8281 17.835 54.6839 18.0651 54.5718 18.3034C54.4499 18.5616 54.3876 18.8078 54.3858 19.0319C54.3858 19.326 54.4778 19.5562 54.658 19.7184C54.8301 19.8705 55.0722 19.9486 55.3785 19.9486H55.3805C55.6446 19.9486 55.9029 19.8664 56.1432 19.7064C56.3612 19.5622 56.5613 19.378 56.7375 19.1579C56.9057 18.9459 57.0497 18.7176 57.1638 18.4775C57.2858 18.2172 57.3479 17.973 57.3479 17.7489C57.3479 17.1665 56.9856 16.8322 56.3552 16.8322C56.1331 16.8362 55.8728 16.9143 55.6187 17.0724ZM23.2388 21.3015L23.2428 21.2976C23.4528 20.9973 23.671 20.687 23.8632 20.3689C24.0393 20.0766 24.3815 19.4562 24.5197 19.204C24.6898 18.8677 25.0401 18.0331 24.6257 17.5487C24.3415 17.2165 23.8312 17.1745 23.0626 17.4187C22.8804 17.4767 22.6263 17.5647 22.314 17.6728C21.057 18.1092 18.9536 18.8398 16.6819 19.294C16.4857 19.3341 16.2876 19.3741 16.0974 19.414L16.0654 19.4202C15.4309 19.5523 14.8325 19.6783 14.228 19.7445C12.5768 19.9245 11.2859 19.9344 10.5153 19.9386C10.3011 19.9405 10.117 19.9405 9.9849 19.9465C9.41448 19.9665 8.95213 19.9605 8.61389 19.9287C8.54184 19.9206 8.47378 19.9144 8.42174 19.9126C8.34769 19.9105 8.27563 19.9144 8.21159 19.9305C8.00743 19.9726 7.89936 20.0826 7.84531 20.1666C7.76125 20.2969 7.73923 20.455 7.77727 20.6371C7.86934 21.0754 8.10751 21.4435 8.4878 21.7359C8.86207 22.0221 9.4465 22.1623 10.2771 22.1623C10.2911 22.1623 10.3051 22.1623 10.3192 22.1623C10.6074 22.1463 11.2879 22.0861 12.3987 21.9781C13.4975 21.87 14.8185 21.6538 16.3256 21.3355C17.6826 21.0493 18.8754 20.7732 19.8741 20.5189C20.1704 20.4429 20.4647 20.3689 20.7509 20.2969L20.7969 20.2849C21.4233 20.1288 22.0719 19.9665 22.6923 19.7865C22.7082 19.7823 22.7242 19.7766 22.7402 19.7724C22.1678 20.7072 21.4775 21.6757 20.5707 22.8227C19.4378 24.2559 16.6819 27.0939 13.5335 28.6551C12.5528 29.1394 11.48 29.4856 10.2511 29.7118C9.42448 29.8639 8.6359 29.9019 7.90336 29.824C7.18082 29.7478 6.50832 29.5416 5.90788 29.2095C5.31145 28.8792 4.80106 28.4209 4.39276 27.8483C3.98245 27.2759 3.69825 26.5615 3.54414 25.7248C3.28994 24.3478 3.35198 22.9149 3.72626 21.4637C4.10455 19.9945 4.70299 18.5535 5.50358 17.1805C6.30818 15.7995 7.29091 14.4645 8.42174 13.2135C9.10025 12.465 9.82077 11.7405 10.5653 11.0599C11.1458 10.5716 11.6701 10.1573 12.1685 9.79301C13.6156 8.73222 15.1627 7.79554 16.7699 7.00494C18.3752 6.21636 19.9823 5.6099 21.5513 5.19961C22.2159 5.02548 22.9184 4.87736 23.639 4.75528C24.3476 4.63718 25.0921 4.55312 25.8506 4.5071C25.9907 4.51109 26.1368 4.5191 26.281 4.5351C26.2689 4.55512 26.2509 4.58115 26.2209 4.61517C26.0627 4.75528 25.9206 4.9114 25.8006 5.08351C25.6406 5.31168 25.5844 5.52986 25.6366 5.728C25.6926 5.93615 25.8927 6.1463 26.2749 6.04622C26.299 6.04023 26.3229 6.03022 26.3451 6.01822C26.7632 5.78803 27.1337 5.52185 27.4438 5.22162C27.7181 4.95342 27.9442 4.6572 28.1202 4.34098C28.3226 3.97871 28.3685 3.5844 28.2585 3.1661C28.1424 2.72376 27.84 2.41553 27.3819 2.27544C26.9855 2.15334 26.531 2.10932 26.0308 2.14334C25.5464 2.17536 25.0361 2.24941 24.5096 2.36551C23.9892 2.47758 23.511 2.59168 23.0846 2.70375C21.3913 3.14608 19.612 3.8366 17.7947 4.75728C15.9793 5.67596 14.192 6.76676 12.4787 7.99967C11.9363 8.38997 11.3859 8.81228 10.7435 9.33466C10.6974 9.34467 10.6514 9.3687 10.6154 9.39872C10.2871 9.67691 9.95088 9.97114 9.58861 10.2994L9.47252 10.3935C9.45451 10.4095 9.43851 10.4275 9.42648 10.4455C8.62989 11.174 7.86532 11.9286 7.15481 12.6851C5.73976 14.1903 4.50485 15.7714 3.48409 17.3827C2.45733 18.9999 1.67875 20.647 1.17238 22.2784C0.659999 23.9295 0.535907 25.5128 0.806106 26.9818C1.15636 28.8811 2.02701 30.3402 3.39601 31.323C4.39077 32.0376 5.57763 32.3998 6.92263 32.3998C7.42501 32.3998 7.95739 32.3478 8.5038 32.2477C9.52055 32.0616 10.5914 31.7192 11.6862 31.233C12.767 30.7526 13.8778 30.1941 14.9906 29.5696C16.9821 28.2668 18.7233 26.9076 19.65 25.9331C20.903 24.616 21.9597 23.139 23.1146 21.4817L23.2388 21.3015Z"></path>
  </symbol>
  <symbol xmlns="http://www.w3.org/2000/svg" viewBox="0 0 194 22" id="gulliver_menu">
    <path d="M11.8402 0C14.2645 1.77958e-05 16.3201 0.619042 18.0066 1.80549C19.2187 2.68244 20.2199 3.92075 21.1158 5.62301L16.0565 7.63454C15.6349 6.70602 15.1076 6.03538 14.5279 5.57112C13.6847 4.90059 12.7361 4.59132 11.5767 4.5913C9.25775 4.5913 7.62384 5.77767 6.72788 8.09901C6.35898 8.97593 6.20085 9.85304 6.20085 10.7816C6.20089 12.6901 6.83339 14.289 8.04547 15.527C8.94143 16.4555 10.2063 16.9718 11.7347 16.9718C13.1049 16.9718 14.1589 16.5589 14.9494 15.8368C15.4764 15.321 15.7927 14.5986 16.0035 13.5669H11.5767V9.59468H22.1694C22.1652 11.7384 21.9029 13.5266 21.4323 14.9084C20.6418 17.0233 19.4294 18.6223 17.6376 19.7571C15.9511 20.8404 13.9481 21.3566 11.6292 21.3566C7.83461 21.3565 4.98855 20.1181 2.93314 17.5904C1.40486 15.6818 0.667028 13.4122 0.666992 10.7816C0.666992 7.84118 1.56274 5.41627 3.35466 3.40443C5.35739 1.13468 8.20369 0 11.8402 0Z"></path>
    <path d="M37.9809 11.4521C37.9809 12.329 37.9812 12.9995 38.0339 13.4122C38.1393 14.7534 38.7716 15.7335 39.931 16.2494C40.4053 16.4557 40.9324 16.6106 41.5121 16.6106C42.8297 16.6106 43.7787 16.146 44.4638 15.2691C44.9381 14.5984 45.2014 13.3605 45.2014 11.4521V0.567238H50.5247V12.174H50.5772C50.5772 13.3603 50.472 14.3922 50.2612 15.2691C49.945 16.6102 49.207 17.7968 48.0476 18.8801C46.3611 20.4276 44.1474 21.2014 41.3541 21.2014C38.5082 21.2014 36.2948 20.4277 34.7137 18.8287C33.8704 18.0033 33.2903 16.9716 32.9741 15.7335C32.7633 14.8566 32.6581 13.6699 32.6581 12.174V0.567238H37.9809V11.4521Z"></path>
    <path d="M68.8124 16.3527H75.1893V20.6855H63.4365V0.567238H68.8124V16.3527Z"></path>
    <path d="M91.8439 16.3527H98.2208V20.6855H86.468V0.567238H91.8439V16.3527Z"></path>
    <path d="M114.401 20.6855H109.025V0.567238H114.401V20.6855Z"></path>
    <path d="M134.481 12.7931L139.435 0.567238H145.233L136.484 20.6855H132.321L123.677 0.567238H129.527L134.481 12.7931Z"></path>
    <path d="M164.838 4.90061H158.514V8.40832H164.522V12.7417H158.514V16.3527H164.838V20.6855H153.191V0.567238H164.838V4.90061Z"></path>
    <path fill-rule="evenodd" clip-rule="evenodd" d="M184.918 0.567238C187.342 0.567238 189.134 1.28957 190.294 2.73393C191.242 3.8688 191.717 5.26181 191.717 6.80937C191.717 8.61482 191.189 10.0076 190.083 11.0909C189.398 11.7614 188.449 12.2259 187.237 12.4838L193.667 20.6855H187.026L181.914 12.9996V20.6855H176.591V0.567238H184.918ZM181.967 9.64657H182.968C184.075 9.64657 184.918 9.4403 185.392 8.97606C185.919 8.40865 186.183 7.78946 186.183 7.0673C186.183 6.34515 185.919 5.72607 185.392 5.26181C184.918 4.79754 184.075 4.5913 182.968 4.5913H181.967V9.64657Z"></path>
  </symbol>
</svg>