<svg width="70" height="25" viewBox="0 0 70 25" fill="none" xmlns="http://www.w3.org/2000/svg">
<g clip-path="url(#clip0_2955_5969)">
<path d="M68 0.268555H2C0.89543 0.268555 0 1.16399 0 2.26855V22.2686C0 23.3731 0.89543 24.2686 2 24.2686H68C69.1046 24.2686 70 23.3731 70 22.2686V2.26855C70 1.16399 69.1046 0.268555 68 0.268555Z" fill="white"/>
<path fill-rule="evenodd" clip-rule="evenodd" d="M45.3362 12.7054C46.4394 12.7018 47.5438 12.7054 48.6481 12.7042C48.8091 12.7054 48.9748 12.69 49.1299 12.7421C49.4222 12.8356 49.6838 13.0522 49.7998 13.3398C49.9265 13.6582 49.7927 14.0299 49.5548 14.2595C49.395 14.4122 49.1725 14.4903 48.9535 14.488C47.7485 14.4891 46.5436 14.4868 45.3386 14.4891C45.3327 13.8949 45.3386 13.2996 45.3362 12.7054ZM58.9093 9.12358C59.7283 9.01468 60.5877 9.32125 61.1547 9.92255C61.7204 10.5049 61.9915 11.3548 61.8684 12.1573C61.7524 12.9906 61.2115 13.7494 60.4634 14.134C59.7106 14.5341 58.7637 14.5329 58.0109 14.134C57.2474 13.7411 56.6994 12.9575 56.5999 12.1029C56.4922 11.298 56.781 10.4541 57.3587 9.88467C57.7718 9.46802 58.3269 9.1946 58.9093 9.12358ZM22.2147 9.12476C22.7935 9.04901 23.3971 9.16856 23.9002 9.46684C24.5642 9.85271 25.0448 10.5369 25.1774 11.2933C25.2898 11.9123 25.1774 12.5704 24.8578 13.1137C24.4577 13.805 23.7333 14.2998 22.9414 14.4087C22.4088 14.4856 21.8536 14.398 21.3731 14.1553C20.928 13.9316 20.5469 13.5813 20.29 13.1552C20.0154 12.7066 19.8817 12.1763 19.9053 11.6519C19.9349 10.8707 20.3326 10.1143 20.9576 9.64557C21.3198 9.36386 21.7589 9.18394 22.2147 9.12476ZM45.3374 9.05374C46.3139 9.05493 47.2893 9.05256 48.2646 9.05138C48.7168 9.01942 49.1689 9.3686 49.2423 9.81839C49.2861 10.1131 49.1595 10.4221 48.931 10.6127C48.7558 10.7654 48.5215 10.8387 48.2918 10.8387C47.307 10.8387 46.3222 10.8387 45.3374 10.8387C45.3362 10.2433 45.3374 9.64794 45.3374 9.05374ZM42.5523 6.35737C42.5523 9.96753 42.5511 13.5765 42.5546 17.1867C44.671 17.1808 46.7862 17.1855 48.9014 17.182C49.2399 17.1796 49.582 17.1962 49.9182 17.1394C50.5668 17.0423 51.1847 16.7428 51.657 16.2871C52.3518 15.6219 52.7566 14.6466 52.6785 13.6819C52.6441 13.167 52.4796 12.658 52.1861 12.2319C51.9825 11.9242 51.7114 11.6709 51.4309 11.4341C51.9837 10.5985 52.1174 9.50117 51.7872 8.55661C51.6487 8.15061 51.4143 7.78249 51.1279 7.46409C50.4852 6.75389 49.5276 6.34672 48.5724 6.35855C46.5649 6.36092 44.5586 6.35737 42.5523 6.35737ZM5.00189 6.35737C5.01373 7.01785 4.96401 7.68307 5.06699 8.33881C5.26585 9.67635 5.98788 10.9228 7.0366 11.7726C6.42938 12.2662 5.92751 12.89 5.57952 13.5907C5.20311 14.3424 5.00544 15.1816 5.00189 16.022C5.00189 16.4102 4.99952 16.7985 5.00307 17.1879C5.94527 17.1867 6.88627 17.1879 7.82728 17.1879C7.82728 16.7144 7.82728 16.2421 7.82728 15.7687C7.82728 15.4006 7.90185 15.0301 8.05099 14.6927C8.31732 14.0784 8.82511 13.573 9.44179 13.3102C10.0715 13.0368 10.8077 13.0238 11.4469 13.2747C12.2246 13.5718 12.8401 14.2548 13.0543 15.0597C13.1194 15.2988 13.1478 15.5461 13.1478 15.7935C13.149 16.2587 13.1478 16.7227 13.149 17.1879C14.09 17.1867 15.031 17.1879 15.9732 17.1879C15.9685 16.6896 15.9851 16.1901 15.9626 15.6917C15.9223 15.0537 15.7696 14.4229 15.5128 13.8381C15.1624 13.038 14.6179 12.3242 13.9397 11.7738C14.4487 11.3584 14.8843 10.8541 15.2169 10.2872C15.7081 9.45737 15.9685 8.49506 15.9732 7.53156C15.9732 7.14095 15.9732 6.75034 15.9732 6.35855C15.031 6.35855 14.09 6.35855 13.1478 6.35855C13.1466 6.85924 13.1514 7.36111 13.1455 7.8618C13.1301 8.59685 12.7892 9.31533 12.2329 9.79471C11.7914 10.1829 11.2173 10.4174 10.6302 10.4458C9.99575 10.4825 9.35302 10.2801 8.85352 9.88704C8.31495 9.46921 7.94683 8.83832 7.85451 8.16245C7.81781 7.9269 7.82847 7.68898 7.82728 7.45225C7.82728 7.08769 7.82728 6.72312 7.82728 6.35855C6.88627 6.35737 5.94408 6.35855 5.00189 6.35737ZM57.6238 6.51124C56.7372 6.78349 55.9252 7.28891 55.2837 7.95886C54.68 8.58738 54.2291 9.36031 53.9805 10.196C53.6751 11.2187 53.6763 12.3313 53.9829 13.3528C54.2409 14.2157 54.7155 15.0111 55.3512 15.6491C55.9809 16.2836 56.7668 16.7629 57.6202 17.0257C58.985 17.4507 60.5143 17.3145 61.7784 16.6446C62.4046 16.3191 62.9562 15.8634 63.4214 15.3343C63.0745 15.9746 62.5656 16.5321 61.9394 16.9062C61.9406 16.9997 61.9394 17.0944 61.9406 17.1879C62.8686 17.1879 63.7966 17.1879 64.7246 17.1879C64.7257 15.655 64.7246 14.1234 64.7246 12.5906C64.7198 11.9869 64.7518 11.3773 64.6358 10.7807C64.502 10.0374 64.2109 9.32362 63.7883 8.69746C63.0544 7.60139 61.9157 6.78349 60.6386 6.44969C59.655 6.18929 58.5968 6.21059 57.6238 6.51124ZM34.0477 6.48875C33.1682 6.80953 32.4497 7.45935 31.8946 8.19796C31.4496 8.79452 31.1027 9.45855 30.8293 10.1498C30.3831 11.2897 30.1085 12.4923 29.9605 13.7056C29.8173 14.8596 29.7924 16.0255 29.7936 17.1867C30.7358 17.1855 31.678 17.1867 32.619 17.1867C32.6237 15.5272 32.6557 13.8417 33.1008 12.2307C33.341 11.3844 33.6654 10.544 34.2016 9.83732C34.4383 9.54023 34.7307 9.24905 35.113 9.16264C35.4077 9.09635 35.7048 9.22774 35.9309 9.40884C36.2635 9.67516 36.5109 10.0326 36.7204 10.3996C37.1536 11.1784 37.4306 12.0366 37.6117 12.9066C37.8993 14.314 37.9265 15.7568 37.9313 17.1879C38.8735 17.1879 39.8157 17.1891 40.7578 17.1879C40.7567 16.4576 40.7555 15.7272 40.7093 14.9981C40.6407 13.6925 40.4465 12.3893 40.063 11.1382C39.7636 10.1498 39.3576 9.18394 38.7575 8.33881C38.2603 7.63809 37.6271 7.01075 36.847 6.63316C35.9865 6.20823 34.9496 6.15023 34.0477 6.48875ZM21.534 6.36447C20.6617 6.529 19.8331 6.91369 19.1407 7.46882C18.4139 8.05118 17.8351 8.81819 17.4848 9.68227C17.0799 10.66 16.9734 11.7561 17.1699 12.7965C17.3368 13.6878 17.7321 14.5353 18.3038 15.2384C18.9111 15.9877 19.7183 16.5736 20.6203 16.9145C21.5518 17.2696 22.5816 17.3583 23.5617 17.1772C24.7974 16.9512 25.9432 16.2788 26.7492 15.3165C26.4084 15.9675 25.8911 16.5286 25.2614 16.9085C25.2626 17.002 25.2626 17.0967 25.2649 17.1902C26.1917 17.1879 27.1186 17.1891 28.0442 17.1902C28.0442 15.3698 28.0442 13.5493 28.0454 11.7277C28.0406 10.5274 27.6275 9.33309 26.8842 8.38971C26.3113 7.65111 25.5455 7.06165 24.6838 6.69826C23.6978 6.27806 22.5863 6.16443 21.534 6.36447Z" fill="#A3A3AA"/>
</g>
<defs>
<clipPath id="clip0_2955_5969">
<rect width="70" height="24" fill="white" transform="translate(0 0.268555)"/>
</clipPath>
</defs>
</svg>
