<svg width="76" height="25" viewBox="0 0 76 25" fill="none" xmlns="http://www.w3.org/2000/svg">
<g clip-path="url(#clip0_2955_4766)">
<path d="M38.8927 17.5452C37.5081 17.5452 36.4153 17.0545 35.6148 16.073C34.8142 15.0809 34.4141 13.6879 34.4141 11.8938C34.4141 10.1419 34.8088 8.75941 35.5987 7.74626C36.3992 6.73313 37.546 6.22656 39.0388 6.22656C39.5582 6.22656 40.0234 6.30044 40.4345 6.44818C40.8457 6.58538 41.1808 6.74368 41.4405 6.92309V8.45863C41.1486 8.27923 40.8025 8.11035 40.402 7.95207C40.0019 7.79376 39.5797 7.7146 39.1364 7.7146C38.1843 7.7146 37.492 8.0576 37.0591 8.74357C36.6264 9.42954 36.41 10.4796 36.41 11.8938C36.41 13.2658 36.6264 14.3053 37.0591 15.0124C37.492 15.7089 38.1518 16.0572 39.0388 16.0572C39.5582 16.0572 40.0073 15.9833 40.386 15.8355C40.7646 15.6772 41.1161 15.482 41.4405 15.2498V16.7853C41.1919 16.9542 40.8564 17.1231 40.4345 17.2919C40.0126 17.4608 39.4986 17.5452 38.8927 17.5452Z" fill="#A3A3AA"/>
<path d="M42.6641 9.42432H49.0253V17.3869H47.0941V10.9123H44.5949V17.3869H42.6641V9.42432Z" fill="#A3A3AA"/>
<path d="M50 15.7564C50 15.7564 50.0379 15.7828 50.1136 15.8356C50.1893 15.8778 50.2976 15.8989 50.4383 15.8989C50.752 15.8989 50.9574 15.7406 51.0549 15.424C51.1521 15.1074 51.2171 14.5269 51.2496 13.6826L51.4118 9.42432H56.9454V17.3869H55.0145V10.9123H53.0508L52.9372 13.7618C52.894 15.081 52.7264 16.0413 52.4342 16.6429C52.142 17.2444 51.585 17.5452 50.7627 17.5452C50.5355 17.5452 50.3515 17.5188 50.2111 17.4661C50.0704 17.4133 50 17.3869 50 17.3869V15.7564Z" fill="#A3A3AA"/>
<path d="M58.5742 9.42432H60.4565V14.3475L63.4423 9.42432H65.1138V17.3869H63.2315V12.4637L60.2454 17.3869H58.5742V9.42432Z" fill="#A3A3AA"/>
<path d="M72.7249 10.9123H70.4529V17.3869H68.5217V10.9123H66.25V9.42432H72.7249V10.9123Z" fill="#A3A3AA"/>
<mask id="mask0_2955_4766" style="mask-type:luminance" maskUnits="userSpaceOnUse" x="2" y="4" width="15" height="16">
<path d="M9.6018 4.60107H9.37769C5.3031 4.60107 2 7.87219 2 11.9073C2 15.9425 5.3031 19.2136 9.37769 19.2136H9.6018C13.6764 19.2136 16.9795 15.9425 16.9795 11.9073C16.9795 7.87219 13.6764 4.60107 9.6018 4.60107Z" fill="white"/>
</mask>
<g mask="url(#mask0_2955_4766)">
<path fill-rule="evenodd" clip-rule="evenodd" d="M16.9795 4.60107H2V19.2136H16.9795V4.60107ZM12.11 16.2984H10.5452V8.7167H9.84692C8.56668 8.7167 7.8942 9.34745 7.8942 10.281C7.8942 11.3406 8.35974 11.8326 9.31672 12.4634L10.1055 12.9806L7.82954 16.2984H6.13545L8.1787 13.3338C7.0019 12.5139 6.34236 11.7191 6.34236 10.3693C6.34236 8.67885 7.54504 7.53088 9.83398 7.53088H12.11V16.2984Z" fill="#A3A3AA"/>
</g>
<path d="M27.7208 10.2399L27.6506 10.1471C31.2318 7.33967 30.8339 6.92203 30.8339 6.92203C30.4828 6.5508 30.1083 6.22597 29.7104 5.94754C29.1486 5.55311 28.5401 5.22828 27.8847 5.01946C25.1695 4.04497 21.9393 4.81064 19.9965 6.92203C17.3984 9.68307 17.3516 14.0683 19.9731 16.8757C22.7351 19.8224 27.4399 20.008 30.4126 17.2934L30.4594 17.247L30.5063 17.2006L30.5296 17.1774C30.5765 17.1309 30.6233 17.0845 30.6467 17.0381C31.4893 15.9709 30.2254 13.0706 27.7208 10.2399ZM30.0147 16.5045C29.8274 16.6901 29.0316 16.7133 27.7442 16.0404C26.5505 15.414 25.2163 14.3467 23.9523 13.0474C23.7416 13.2098 27.2527 10.4719 27.0888 10.6112C28.189 11.8641 29.1252 13.233 29.6168 14.3699C30.202 15.6924 30.1786 16.3421 30.0147 16.5045Z" fill="#A3A3AA"/>
</g>
<defs>
<clipPath id="clip0_2955_4766">
<rect width="71" height="15" fill="white" transform="translate(2 4.31299)"/>
</clipPath>
</defs>
</svg>
