<svg width="48" height="25" viewBox="0 0 48 25" fill="none" xmlns="http://www.w3.org/2000/svg">
<g clip-path="url(#clip0_2955_4790)">
<path d="M46 0.249512H2C0.89543 0.249512 0 1.14494 0 2.24951V22.2495C0 23.3541 0.89543 24.2495 2 24.2495H46C47.1046 24.2495 48 23.3541 48 22.2495V2.24951C48 1.14494 47.1046 0.249512 46 0.249512Z" fill="white"/>
<path d="M32.9336 12.2222V18.25H36.2729V14.678H40.0574C41.6492 14.6668 43.0016 13.6454 43.5136 12.2222H32.9336Z" fill="#A3A3AA"/>
<path d="M32.4883 7.25586C32.6831 9.71724 35.0095 11.6651 37.8478 11.6651C37.859 11.6651 43.6526 11.6651 43.6526 11.6651C43.6971 11.4419 43.7194 11.2075 43.7194 10.9675C43.7194 8.92469 42.0776 7.2726 40.0462 7.25586H32.4883Z" fill="#A3A3AA"/>
<path d="M27.5435 11.6037C27.5824 11.5368 27.6436 11.4977 27.7216 11.4977C27.8329 11.4977 27.9163 11.587 27.9219 11.693V18.1953H31.2612V7.25586H27.9219C27.4989 7.2726 27.0203 7.57958 26.8422 7.96469L24.1875 13.68C24.1819 13.7023 24.1708 13.7247 24.1597 13.747C24.1207 13.8028 24.0539 13.8419 23.976 13.8419C23.8536 13.8419 23.7534 13.7414 23.7534 13.6186V7.25586H20.4141V18.1953H23.7534C24.1708 18.173 24.6383 17.866 24.8164 17.4865L27.5435 11.6205C27.5379 11.6149 27.5435 11.6093 27.5435 11.6037Z" fill="#A3A3AA"/>
<path d="M15.0791 11.7928L13.1256 18.1946H10.7213L8.77339 11.7872C8.75669 11.6867 8.66764 11.6086 8.55633 11.6086C8.43389 11.6086 8.33928 11.7091 8.33928 11.8263V18.189H5V7.24951H7.86622H8.71773C9.32993 7.24951 9.97553 7.72951 10.1537 8.31556L11.7788 13.6458C11.8623 13.9137 11.9903 13.9081 12.0738 13.6458L13.6989 8.31556C13.877 7.72393 14.5226 7.24951 15.1348 7.24951H15.9863H18.8525V18.189H15.5132V11.8263C15.5132 11.8263 15.5132 11.8263 15.5132 11.8207C15.5132 11.6979 15.413 11.603 15.2962 11.603C15.1848 11.6086 15.0958 11.6867 15.0791 11.7928Z" fill="#A3A3AA"/>
</g>
<defs>
<clipPath id="clip0_2955_4790">
<rect width="48" height="24" fill="white" transform="translate(0 0.249512)"/>
</clipPath>
</defs>
</svg>
