<svg width="48" height="25" viewBox="0 0 48 25" fill="none" xmlns="http://www.w3.org/2000/svg">
<g clip-path="url(#clip0_2955_4786)">
<path d="M46 0.249512H2C0.89543 0.249512 0 1.14494 0 2.24951V22.2495C0 23.3541 0.89543 24.2495 2 24.2495H46C47.1046 24.2495 48 23.3541 48 22.2495V2.24951C48 1.14494 47.1046 0.249512 46 0.249512Z" fill="white"/>
<path fill-rule="evenodd" clip-rule="evenodd" d="M32.1653 7.69749C31.5881 7.48156 30.6835 7.24951 29.5533 7.24951C26.6736 7.24951 24.6443 8.69525 24.6273 10.7659C24.6115 12.2981 26.0755 13.1512 27.1814 13.662C28.3154 14.1834 28.6973 14.5168 28.6913 14.983C28.6841 15.6974 27.7859 16.0236 26.9481 16.0236C25.7813 16.0236 25.162 15.8628 24.2046 15.4649L23.8287 15.2952L23.4196 17.681C24.1011 17.978 25.359 18.2363 26.6663 18.2495C29.7304 18.2495 31.7196 16.8207 31.7418 14.6089C31.7524 13.3964 30.9764 12.4738 29.2954 11.714C28.2758 11.2206 27.6522 10.891 27.659 10.3921C27.659 9.95009 28.1864 9.47539 29.3273 9.47539C30.2817 9.46054 30.9713 9.66798 31.5089 9.88433L31.7707 10.0065L32.1653 7.69749ZM18.6814 18.0913L20.5038 7.43534H23.418L21.5948 18.0913H18.6814ZM37.3878 7.44576H39.6401L41.9988 18.0941H39.294C39.294 18.0941 39.0271 16.8706 38.9398 16.4977C38.7144 16.4977 37.7729 16.4965 36.8881 16.4954H36.8758C36.0961 16.4944 35.3632 16.4935 35.207 16.4935C35.0938 16.7815 34.5936 18.0941 34.5936 18.0941H31.5325L35.8609 8.32941C36.1682 7.63497 36.6897 7.44576 37.3878 7.44576ZM36.0452 14.3139C36.2865 13.7 37.2069 11.3346 37.2069 11.3346C37.1984 11.3485 37.255 11.2018 37.3324 11.0015C37.4136 10.7914 37.5176 10.5223 37.593 10.3177L37.7896 11.2366C37.7896 11.2366 38.3481 13.7798 38.4652 14.3139H36.0452ZM13.3837 14.7095L16.2366 7.44309H19.3237L14.7356 18.0783L11.6515 18.0825L9.04297 8.76242C10.893 9.68552 12.5485 11.53 13.0793 13.2328L13.3837 14.7095Z" fill="#A3A3AA"/>
<path fill-rule="evenodd" clip-rule="evenodd" d="M10.7374 7.43604H6.03704L6 7.65748C9.65663 8.54028 12.0762 10.6716 13.0804 13.233L12.0583 8.33538C11.8821 7.66045 11.37 7.45937 10.7374 7.43604Z" fill="#A3A3AA"/>
</g>
<defs>
<clipPath id="clip0_2955_4786">
<rect width="48" height="24" fill="white" transform="translate(0 0.249512)"/>
</clipPath>
</defs>
</svg>
