<svg width="48" height="25" viewBox="0 0 48 25" fill="none" xmlns="http://www.w3.org/2000/svg">
<g clip-path="url(#clip0_2955_4781)">
<path d="M46 0.249512H2C0.89543 0.249512 0 1.14494 0 2.24951V22.2495C0 23.3541 0.89543 24.2495 2 24.2495H46C47.1046 24.2495 48 23.3541 48 22.2495V2.24951C48 1.14494 47.1046 0.249512 46 0.249512Z" fill="white"/>
<path fill-rule="evenodd" clip-rule="evenodd" d="M29.8068 21.2495C34.8843 21.2495 39.0004 17.2201 39.0004 12.2495C39.0004 7.27895 34.8843 3.24951 29.8068 3.24951C24.7293 3.24951 20.6133 7.27895 20.6133 12.2495C20.6133 17.2201 24.7293 21.2495 29.8068 21.2495Z" fill="#A3A3AA"/>
<path fill-rule="evenodd" clip-rule="evenodd" d="M18.1936 21.2495C23.271 21.2495 27.3871 17.2201 27.3871 12.2495C27.3871 7.27895 23.271 3.24951 18.1936 3.24951C13.1161 3.24951 9 7.27895 9 12.2495C9 17.2201 13.1161 21.2495 18.1936 21.2495Z" fill="#C4C4CE"/>
<path fill-rule="evenodd" clip-rule="evenodd" d="M24.0002 5.27148C21.9332 6.92181 20.6133 9.43475 20.6133 12.2495C20.6133 15.0642 21.9332 17.5772 24.0002 19.2275C26.0671 17.5772 27.3871 15.0642 27.3871 12.2495C27.3871 9.43475 26.0671 6.92181 24.0002 5.27148Z" fill="#DBDBE0"/>
</g>
<defs>
<clipPath id="clip0_2955_4781">
<rect width="48" height="24" fill="white" transform="translate(0 0.249512)"/>
</clipPath>
</defs>
</svg>
