<svg width="234" height="19" viewBox="0 0 234 19" fill="none" xmlns="http://www.w3.org/2000/svg">
<path d="M0 9.75C0 4.78053 4.02855 0.75 8.99802 0.75H15.7143V18.75H8.99802C4.02855 18.75 0 14.7195 0 9.75Z" fill="#3F3F46"/>
<g clip-path="url(#clip0_2505_160770)">
<path d="M11.018 8.1525L10.9527 8.06358C14.2844 5.3738 13.9142 4.97367 13.9142 4.97367C13.5876 4.618 13.2392 4.30678 12.869 4.04003C12.3464 3.66213 11.7802 3.35091 11.1705 3.15085C8.64445 2.21721 5.63938 2.95078 3.83198 4.97367C1.41485 7.61899 1.3713 11.8204 3.8102 14.5102C6.37976 17.3333 10.7567 17.5111 13.5223 14.9103L13.5658 14.8658L13.6094 14.8214L13.6311 14.7991C13.6747 14.7547 13.7182 14.7102 13.74 14.6658C14.5239 13.6432 13.348 10.8645 11.018 8.1525ZM13.1521 14.1545C12.9779 14.3323 12.2375 14.3545 11.0398 13.7099C9.92923 13.1097 8.68801 12.0871 7.51211 10.8423C7.31612 10.9979 10.5825 8.3748 10.4301 8.50817C11.4535 9.70857 12.3246 11.0201 12.7819 12.1094C13.3263 13.3764 13.3045 13.9989 13.1521 14.1545Z" fill="white" fill-opacity="0.98"/>
</g>
<path d="M15.7144 0.75H58.7137C59.8183 0.75 60.7137 1.64543 60.7137 2.75V16.75C60.7137 17.8546 59.8183 18.75 58.7137 18.75H15.7144V0.75Z" fill="#3F3F46"/>
<path d="M18.0144 14.51L21.4224 10.922C22.2464 10.05 22.6584 9.222 22.6584 8.438C22.6584 7.958 22.5224 7.582 22.2504 7.31C21.9864 7.038 21.6104 6.902 21.1224 6.902C20.0824 6.902 19.4784 7.538 19.3104 8.81H18.3384C18.4024 7.962 18.6784 7.294 19.1664 6.806C19.6624 6.31 20.3144 6.062 21.1224 6.062C21.9144 6.062 22.5424 6.282 23.0064 6.722C23.4784 7.154 23.7144 7.738 23.7144 8.474C23.7144 9.418 23.1384 10.458 21.9864 11.594L19.6224 13.898H23.7624V14.75H18.0144V14.51ZM27.9552 14.858C27.0672 14.858 26.3872 14.642 25.9152 14.21C25.4432 13.77 25.1712 13.178 25.0992 12.434H26.0952C26.1912 12.954 26.3712 13.35 26.6352 13.622C26.8992 13.886 27.3352 14.018 27.9432 14.018C28.5272 14.018 28.9872 13.834 29.3232 13.466C29.6592 13.098 29.8272 12.59 29.8272 11.942C29.8272 11.334 29.6632 10.85 29.3352 10.49C29.0152 10.122 28.5792 9.938 28.0272 9.938C27.5472 9.938 27.1512 10.006 26.8392 10.142C26.5272 10.278 26.2472 10.486 25.9992 10.766H25.6152V6.17H30.4392V7.07H26.4792V9.686C26.9032 9.294 27.4872 9.098 28.2312 9.098C29.0152 9.098 29.6552 9.358 30.1512 9.878C30.6472 10.39 30.8952 11.078 30.8952 11.942C30.8952 12.83 30.6152 13.538 30.0552 14.066C29.4952 14.594 28.7952 14.858 27.9552 14.858ZM35.8362 13.994C37.3482 13.994 38.1042 12.886 38.1042 10.67V10.19C38.1042 9.19 37.9002 8.394 37.4922 7.802C37.0842 7.202 36.5242 6.902 35.8122 6.902C35.0842 6.902 34.5162 7.19 34.1082 7.766C33.7002 8.342 33.4962 9.158 33.4962 10.214V10.694C33.4962 11.758 33.7042 12.574 34.1202 13.142C34.5362 13.71 35.1082 13.994 35.8362 13.994ZM35.8362 14.858C34.8122 14.858 33.9882 14.478 33.3642 13.718C32.7402 12.958 32.4282 11.954 32.4282 10.706V10.226C32.4282 8.954 32.7282 7.942 33.3282 7.19C33.9362 6.438 34.7642 6.062 35.8122 6.062C36.8522 6.062 37.6682 6.442 38.2602 7.202C38.8602 7.962 39.1602 8.962 39.1602 10.202V10.682C39.1602 11.946 38.8642 12.958 38.2722 13.718C37.6882 14.478 36.8762 14.858 35.8362 14.858ZM44.1565 13.994C45.6685 13.994 46.4245 12.886 46.4245 10.67V10.19C46.4245 9.19 46.2205 8.394 45.8125 7.802C45.4045 7.202 44.8445 6.902 44.1325 6.902C43.4045 6.902 42.8365 7.19 42.4285 7.766C42.0205 8.342 41.8165 9.158 41.8165 10.214V10.694C41.8165 11.758 42.0245 12.574 42.4405 13.142C42.8565 13.71 43.4285 13.994 44.1565 13.994ZM44.1565 14.858C43.1325 14.858 42.3085 14.478 41.6845 13.718C41.0605 12.958 40.7485 11.954 40.7485 10.706V10.226C40.7485 8.954 41.0485 7.942 41.6485 7.19C42.2565 6.438 43.0845 6.062 44.1325 6.062C45.1725 6.062 45.9885 6.442 46.5805 7.202C47.1805 7.962 47.4805 8.962 47.4805 10.202V10.682C47.4805 11.946 47.1845 12.958 46.5925 13.718C46.0085 14.478 45.1965 14.858 44.1565 14.858Z" fill="white"/>
<path d="M53.7824 10.43C54.3984 10.43 54.8664 10.286 55.1864 9.998C55.5064 9.702 55.6664 9.278 55.6664 8.726V8.678C55.6664 7.566 55.0384 7.01 53.7824 7.01H52.3184V10.43H53.7824ZM52.3184 12.77V14.75H51.2744V12.77H50.0744V12.074H51.2744V11.138H50.0744V10.442H51.2744V6.17H53.7104C54.5904 6.17 55.3104 6.378 55.8704 6.794C56.4304 7.202 56.7104 7.83 56.7104 8.678V8.726C56.7104 9.59 56.4304 10.23 55.8704 10.646C55.3184 11.054 54.5984 11.258 53.7104 11.258H52.3184V12.074H55.2344V12.77H52.3184Z" fill="white"/>
<path d="M65.1816 11.602L67.0296 9.754L65.1816 7.906L65.7456 7.33L67.5936 9.19L69.4416 7.33L70.0176 7.906L68.1696 9.754L70.0176 11.602L69.4416 12.178L67.5936 10.318L65.7456 12.178L65.1816 11.602Z" fill="#3F3F46"/>
<path d="M78.3556 11.65H73.3436V11.258L77.9216 3.74H79.5456V10.656H80.9316V11.65H79.5456V13.75H78.3556V11.65ZM78.3556 10.656V4.664L74.8836 10.656H78.3556Z" fill="#3F3F46"/>
<path d="M89.5096 7.408H86.0516V13.75H84.8896V6.428H90.6716V13.75H89.5096V7.408ZM94.4244 10.922C94.3404 11.93 94.1631 12.6673 93.8924 13.134C93.6217 13.5913 93.1971 13.82 92.6184 13.82C92.4971 13.82 92.3711 13.8107 92.2404 13.792L92.1284 13.75V12.644L92.2264 12.672C92.3197 12.6907 92.4177 12.7 92.5204 12.7C92.6697 12.7 92.7911 12.658 92.8844 12.574C92.9871 12.4807 93.0664 12.336 93.1224 12.14C93.1877 11.944 93.2344 11.762 93.2624 11.594C93.2904 11.4167 93.3231 11.1693 93.3604 10.852C93.3977 10.516 93.4537 9.564 93.5284 7.996L93.5704 6.428H98.4004V13.75H97.2384V7.408H94.6064C94.5224 9.424 94.4617 10.5953 94.4244 10.922ZM102.667 13.876C101.948 13.876 101.36 13.6987 100.903 13.344C100.455 12.98 100.231 12.4387 100.231 11.72C100.231 11.3187 100.329 10.9687 100.525 10.67C100.73 10.362 101.01 10.124 101.365 9.956C101.72 9.77867 102.107 9.65267 102.527 9.578C102.947 9.494 103.404 9.452 103.899 9.452H104.949V8.92C104.949 8.332 104.828 7.912 104.585 7.66C104.342 7.39867 103.941 7.268 103.381 7.268C102.373 7.268 101.813 7.70667 101.701 8.584H100.539C100.614 7.8 100.917 7.226 101.449 6.862C101.99 6.48867 102.653 6.302 103.437 6.302C105.22 6.302 106.111 7.17467 106.111 8.92V13.75H104.949V12.826C104.389 13.526 103.628 13.876 102.667 13.876ZM102.779 12.952C103.414 12.952 103.932 12.798 104.333 12.49C104.744 12.1727 104.949 11.7387 104.949 11.188V10.278H103.941C102.242 10.278 101.393 10.7587 101.393 11.72C101.393 12.5413 101.855 12.952 102.779 12.952ZM113.242 7.408H110.876V13.75H109.714V7.408H107.348V6.428H113.242V7.408ZM117.651 13.876C116.606 13.876 115.752 13.5353 115.089 12.854C114.436 12.1727 114.109 11.2767 114.109 10.166V10.054C114.109 8.95267 114.427 8.052 115.061 7.352C115.705 6.652 116.531 6.302 117.539 6.302C118.473 6.302 119.252 6.60533 119.877 7.212C120.512 7.80933 120.829 8.71933 120.829 9.942V10.32H115.313C115.369 12.0467 116.153 12.91 117.665 12.91C118.813 12.91 119.462 12.4853 119.611 11.636H120.773C120.643 12.364 120.302 12.9193 119.751 13.302C119.201 13.6847 118.501 13.876 117.651 13.876ZM119.639 9.382C119.537 7.97267 118.837 7.268 117.539 7.268C116.951 7.268 116.466 7.45467 116.083 7.828C115.701 8.20133 115.458 8.71933 115.355 9.382H119.639ZM125.612 9.984L122.784 13.75H121.482L124.464 9.858L121.748 6.428H122.994L125.612 9.872V6.428H126.746V9.872L129.364 6.428H130.624L127.908 9.858L130.89 13.75H129.574L126.746 9.984V13.75H125.612V9.984ZM134.167 13.876C133.448 13.876 132.86 13.6987 132.403 13.344C131.955 12.98 131.731 12.4387 131.731 11.72C131.731 11.3187 131.829 10.9687 132.025 10.67C132.23 10.362 132.51 10.124 132.865 9.956C133.22 9.77867 133.607 9.65267 134.027 9.578C134.447 9.494 134.904 9.452 135.399 9.452H136.449V8.92C136.449 8.332 136.328 7.912 136.085 7.66C135.842 7.39867 135.441 7.268 134.881 7.268C133.873 7.268 133.313 7.70667 133.201 8.584H132.039C132.114 7.8 132.417 7.226 132.949 6.862C133.49 6.48867 134.153 6.302 134.937 6.302C136.72 6.302 137.611 7.17467 137.611 8.92V13.75H136.449V12.826C135.889 13.526 135.128 13.876 134.167 13.876ZM134.279 12.952C134.914 12.952 135.432 12.798 135.833 12.49C136.244 12.1727 136.449 11.7387 136.449 11.188V10.278H135.441C133.742 10.278 132.893 10.7587 132.893 11.72C132.893 12.5413 133.355 12.952 134.279 12.952ZM146.665 13.876C145.563 13.876 144.691 13.5213 144.047 12.812C143.403 12.1027 143.081 11.0247 143.081 9.578V9.13C143.081 8.43933 143.109 7.828 143.165 7.296C143.221 6.75467 143.337 6.21333 143.515 5.672C143.692 5.12133 143.925 4.664 144.215 4.3C144.504 3.936 144.896 3.63267 145.391 3.39C145.895 3.14733 146.487 3.00733 147.169 2.97L147.449 2.956C148.475 2.9 149.171 2.79733 149.535 2.648L149.689 3.628C149.213 3.83333 148.471 3.95933 147.463 4.006L147.253 4.02C146.123 4.076 145.316 4.44467 144.831 5.126C144.355 5.798 144.075 6.84333 143.991 8.262H144.047C144.299 7.74867 144.672 7.34267 145.167 7.044C145.671 6.736 146.254 6.582 146.917 6.582C147.934 6.582 148.746 6.91333 149.353 7.576C149.969 8.22933 150.277 9.07867 150.277 10.124V10.18C150.277 11.3093 149.936 12.21 149.255 12.882C148.583 13.5447 147.719 13.876 146.665 13.876ZM144.915 12.196C145.344 12.672 145.932 12.91 146.679 12.91C147.425 12.91 148.009 12.6767 148.429 12.21C148.858 11.734 149.073 11.062 149.073 10.194V10.166C149.073 9.354 148.877 8.71467 148.485 8.248C148.102 7.78133 147.542 7.548 146.805 7.548C146.03 7.548 145.414 7.79067 144.957 8.276C144.509 8.76133 144.285 9.424 144.285 10.264V10.292C144.285 11.0853 144.495 11.72 144.915 12.196ZM155.167 13.876C154.122 13.876 153.268 13.5353 152.605 12.854C151.952 12.1727 151.625 11.2767 151.625 10.166V10.054C151.625 8.95267 151.942 8.052 152.577 7.352C153.221 6.652 154.047 6.302 155.055 6.302C155.988 6.302 156.768 6.60533 157.393 7.212C158.028 7.80933 158.345 8.71933 158.345 9.942V10.32H152.829C152.885 12.0467 153.669 12.91 155.181 12.91C156.329 12.91 156.978 12.4853 157.127 11.636H158.289C158.158 12.364 157.818 12.9193 157.267 13.302C156.716 13.6847 156.016 13.876 155.167 13.876ZM157.155 9.382C157.052 7.97267 156.352 7.268 155.055 7.268C154.467 7.268 153.982 7.45467 153.599 7.828C153.216 8.20133 152.974 8.71933 152.871 9.382H157.155ZM164.762 8.332C164.762 8.696 164.655 9.032 164.44 9.34C164.235 9.63867 163.941 9.82533 163.558 9.9C164.034 9.984 164.412 10.166 164.692 10.446C164.972 10.726 165.112 11.0947 165.112 11.552V11.594C165.112 12.2753 164.86 12.826 164.356 13.246C163.861 13.666 163.185 13.876 162.326 13.876C161.439 13.876 160.744 13.6707 160.24 13.26C159.745 12.84 159.479 12.252 159.442 11.496H160.576C160.632 11.9627 160.791 12.3173 161.052 12.56C161.323 12.7933 161.747 12.91 162.326 12.91C163.371 12.91 163.894 12.4947 163.894 11.664V11.622C163.894 11.2113 163.768 10.9127 163.516 10.726C163.273 10.5393 162.895 10.446 162.382 10.446H161.276V9.522H162.186C162.671 9.522 163.017 9.43333 163.222 9.256C163.437 9.07867 163.544 8.78933 163.544 8.388V8.346C163.544 7.62733 163.124 7.268 162.284 7.268C161.472 7.268 160.987 7.65067 160.828 8.416H159.708C159.792 7.67867 160.072 7.142 160.548 6.806C161.033 6.47 161.635 6.302 162.354 6.302C163.045 6.302 163.619 6.47933 164.076 6.834C164.533 7.17933 164.762 7.66467 164.762 8.29V8.332ZM175.287 7.408H171.829V13.75H170.667V6.428H176.449V13.75H175.287V7.408ZM181.882 13.876C180.836 13.876 179.982 13.5353 179.32 12.854C178.666 12.1727 178.34 11.2767 178.34 10.166V10.054C178.34 8.95267 178.657 8.052 179.292 7.352C179.936 6.652 180.762 6.302 181.77 6.302C182.703 6.302 183.482 6.60533 184.108 7.212C184.742 7.80933 185.06 8.71933 185.06 9.942V10.32H179.544C179.6 12.0467 180.384 12.91 181.896 12.91C183.044 12.91 183.692 12.4853 183.842 11.636H185.004C184.873 12.364 184.532 12.9193 183.982 13.302C183.431 13.6847 182.731 13.876 181.882 13.876ZM183.87 9.382C183.767 7.97267 183.067 7.268 181.77 7.268C181.182 7.268 180.696 7.45467 180.314 7.828C179.931 8.20133 179.688 8.71933 179.586 9.382H183.87ZM186.843 6.428H188.005V7.66C188.219 7.28667 188.555 6.96933 189.013 6.708C189.47 6.43733 189.96 6.302 190.483 6.302C191.463 6.302 192.261 6.63333 192.877 7.296C193.502 7.95867 193.815 8.85467 193.815 9.984V10.096C193.815 11.2253 193.507 12.14 192.891 12.84C192.284 13.5307 191.481 13.876 190.483 13.876C189.363 13.876 188.537 13.4327 188.005 12.546V16.298H186.843V6.428ZM190.371 12.91C191.099 12.91 191.654 12.6767 192.037 12.21C192.419 11.734 192.611 11.048 192.611 10.152V10.04C192.611 9.15333 192.396 8.472 191.967 7.996C191.547 7.51067 191.01 7.268 190.357 7.268C189.647 7.268 189.069 7.506 188.621 7.982C188.182 8.44867 187.963 9.13467 187.963 10.04V10.152C187.963 11.0573 188.177 11.7433 188.607 12.21C189.045 12.6767 189.633 12.91 190.371 12.91ZM198.616 13.876C197.571 13.876 196.717 13.5353 196.054 12.854C195.401 12.1727 195.074 11.2767 195.074 10.166V10.054C195.074 8.95267 195.391 8.052 196.026 7.352C196.67 6.652 197.496 6.302 198.504 6.302C199.437 6.302 200.217 6.60533 200.842 7.212C201.477 7.80933 201.794 8.71933 201.794 9.942V10.32H196.278C196.334 12.0467 197.118 12.91 198.63 12.91C199.778 12.91 200.427 12.4853 200.576 11.636H201.738C201.607 12.364 201.267 12.9193 200.716 13.302C200.165 13.6847 199.465 13.876 198.616 13.876ZM200.604 9.382C200.501 7.97267 199.801 7.268 198.504 7.268C197.916 7.268 197.431 7.45467 197.048 7.828C196.665 8.20133 196.423 8.71933 196.32 9.382H200.604ZM208.113 7.408H204.655V13.75H203.493V6.428H209.275V13.75H208.113V7.408ZM213.028 10.922C212.944 11.93 212.767 12.6673 212.496 13.134C212.225 13.5913 211.801 13.82 211.222 13.82C211.101 13.82 210.975 13.8107 210.844 13.792L210.732 13.75V12.644L210.83 12.672C210.923 12.6907 211.021 12.7 211.124 12.7C211.273 12.7 211.395 12.658 211.488 12.574C211.591 12.4807 211.67 12.336 211.726 12.14C211.791 11.944 211.838 11.762 211.866 11.594C211.894 11.4167 211.927 11.1693 211.964 10.852C212.001 10.516 212.057 9.564 212.132 7.996L212.174 6.428H217.004V13.75H215.842V7.408H213.21C213.126 9.424 213.065 10.5953 213.028 10.922ZM221.271 13.876C220.552 13.876 219.964 13.6987 219.507 13.344C219.059 12.98 218.835 12.4387 218.835 11.72C218.835 11.3187 218.933 10.9687 219.129 10.67C219.334 10.362 219.614 10.124 219.969 9.956C220.323 9.77867 220.711 9.65267 221.131 9.578C221.551 9.494 222.008 9.452 222.503 9.452H223.553V8.92C223.553 8.332 223.431 7.912 223.189 7.66C222.946 7.39867 222.545 7.268 221.985 7.268C220.977 7.268 220.417 7.70667 220.305 8.584H219.143C219.217 7.8 219.521 7.226 220.053 6.862C220.594 6.48867 221.257 6.302 222.041 6.302C223.823 6.302 224.715 7.17467 224.715 8.92V13.75H223.553V12.826C222.993 13.526 222.232 13.876 221.271 13.876ZM221.383 12.952C222.017 12.952 222.535 12.798 222.937 12.49C223.347 12.1727 223.553 11.7387 223.553 11.188V10.278H222.545C220.846 10.278 219.997 10.7587 219.997 11.72C219.997 12.5413 220.459 12.952 221.383 12.952ZM231.846 7.408H229.48V13.75H228.318V7.408H225.952V6.428H231.846V7.408Z" fill="#3F3F46"/>
<defs>
<clipPath id="clip0_2505_160770">
<rect width="13.7143" height="14" fill="white" transform="translate(2 2.75)"/>
</clipPath>
</defs>
</svg>
