<svg width="17" height="17" viewBox="0 0 17 17" fill="none" xmlns="http://www.w3.org/2000/svg">
<path d="M9.91137 9.57689C8.86375 10.6578 8.78756 12.0055 8.69708 14.9578C11.4495 14.9578 13.3495 14.9483 14.3304 13.9959C15.2828 13.015 15.2923 11.0245 15.2923 8.36261C12.3399 8.45785 10.9923 8.52927 9.91137 9.57689ZM1.95898 8.36261C1.95898 11.0245 1.96851 13.015 2.92089 13.9959C3.90184 14.9483 5.80184 14.9578 8.55422 14.9578C8.45898 12.0055 8.38756 10.6578 7.33994 9.57689C6.25898 8.52927 4.91137 8.45308 1.95898 8.36261ZM8.55422 1.62451C5.8066 1.62451 3.90184 1.63404 2.92089 2.58642C1.96851 3.56737 1.95898 5.55785 1.95898 8.21975C4.91137 8.12451 6.25898 8.05308 7.33994 7.00546C8.38756 5.92451 8.46375 4.57689 8.55422 1.62451ZM9.91137 7.00546C8.86375 5.92451 8.78756 4.57689 8.69708 1.62451C11.4495 1.62451 13.3495 1.63404 14.3304 2.58642C15.2828 3.56737 15.2923 5.55785 15.2923 8.21975C12.3399 8.12451 10.9923 8.05308 9.91137 7.00546Z" fill="#3F3F46"/>
</svg>
