<svg width="17" height="17" viewBox="0 0 17 17" fill="none" xmlns="http://www.w3.org/2000/svg">
<path d="M6.39787 14.48C6.32379 13.721 6.37194 12.9936 6.54231 12.2976L7.20898 9.42108C7.08672 9.04986 7.02117 8.66234 7.01453 8.27159C7.01453 7.33866 7.46453 6.67229 8.17564 6.67229C8.66453 6.67229 9.02564 7.01658 9.02564 7.67185C9.02564 7.88287 8.98305 8.1198 8.89786 8.38265L8.60898 9.33778C8.55342 9.52289 8.52564 9.69318 8.52564 9.84867C8.52564 10.515 9.0312 10.8871 9.6812 10.8871C10.8423 10.8871 11.6645 9.68763 11.6645 8.13276C11.6645 6.40019 10.5312 5.28957 8.85898 5.28957C6.99231 5.28957 5.80898 6.5057 5.80898 8.1994C5.80898 8.87688 6.02009 9.50993 6.42565 9.94307C6.29231 10.1707 6.14787 10.2096 5.93676 10.2096C5.27009 10.2096 4.63676 9.27115 4.63676 7.98838C4.63676 5.76713 6.41454 4.0068 8.90342 4.0068C11.5145 4.0068 13.159 5.83377 13.159 8.07723C13.159 10.3207 11.559 12.0477 9.83675 12.0477C9.50901 12.052 9.18476 11.98 8.88969 11.8374C8.59462 11.6947 8.33684 11.4853 8.13675 11.2258L7.79231 12.6141C7.61982 13.3428 7.31475 14.0337 6.89231 14.6521C7.89046 14.9655 8.94846 15.0393 9.98047 14.8674C11.0125 14.6956 11.9894 14.2829 12.832 13.663C13.6746 13.0431 14.3591 12.2334 14.83 11.2995C15.3009 10.3657 15.545 9.33401 15.5423 8.28825C15.5423 6.52091 14.8399 4.82597 13.5897 3.57627C12.3394 2.32658 10.6437 1.62451 8.87564 1.62451C7.10753 1.62451 5.41184 2.32658 4.1616 3.57627C2.91136 4.82597 2.20899 6.52091 2.20899 8.28825C2.20792 9.62062 2.60646 10.9227 3.35315 12.0264C4.09984 13.1301 5.16039 13.9848 6.39787 14.48Z" fill="#3F3F46"/>
</svg>
