<svg width="17" height="17" viewBox="0 0 17 17" fill="none" xmlns="http://www.w3.org/2000/svg">
<path d="M2.63076 7.52633C5.02757 6.5146 7.43089 5.51847 9.84056 4.53799C13.2734 3.16493 13.7512 2.96452 14.2153 2.95752C14.4146 2.96381 14.6065 3.03514 14.7618 3.1607C14.9561 3.32648 15.0152 3.43148 15.0317 3.52395C15.047 3.6166 15.0455 3.90525 15.029 4.06974C14.843 5.94991 14.1367 10.2922 13.7277 12.4004C13.5542 13.2914 13.2127 13.5898 12.8822 13.6189C12.1649 13.6824 11.6196 13.163 10.9243 12.7236C9.83652 12.0369 9.473 11.7842 8.41825 11.1143C7.19678 10.3406 7.69929 10.0711 8.39475 9.37611C8.57651 9.19522 11.5921 6.43363 11.6374 6.18201C11.676 5.96097 11.6899 5.93205 11.5908 5.83258C11.4902 5.73311 11.3705 5.74545 11.2934 5.76203C11.1832 5.7856 9.52257 6.83962 6.30873 8.92591C5.81578 9.25324 5.36964 9.41221 4.96885 9.40392C4.52822 9.39416 3.67872 9.16354 3.04807 8.96588C2.27275 8.72274 1.65734 8.59563 1.71241 8.18394C1.73995 7.96971 2.04546 7.75014 2.63076 7.52633Z" fill="#3F3F46"/>
</svg>
