<svg width="17" height="17" viewBox="0 0 17 17" fill="none" xmlns="http://www.w3.org/2000/svg">
<path d="M8.64689 12.1959C4.09141 12.1959 1.49303 8.97844 1.38477 3.62451H3.66667C3.74163 7.55416 5.42391 9.21868 6.75641 9.56188V3.62451H8.90507V7.01361C10.2209 6.86775 11.6034 5.32335 12.0698 3.62451H14.2184C14.0427 4.50558 13.6924 5.33981 13.1894 6.07502C12.6864 6.81024 12.0416 7.43061 11.2952 7.89736C12.1283 8.32383 12.8642 8.92747 13.4542 9.66844C14.0442 10.4094 14.475 11.2709 14.7181 12.1959H12.3529C12.1347 11.3924 11.6911 10.6732 11.0777 10.1283C10.4644 9.5834 9.7086 9.23713 8.90507 9.13288V12.1959H8.64689Z" fill="#3F3F46"/>
</svg>
