<svg width="80" height="19" viewBox="0 0 80 19" fill="none" xmlns="http://www.w3.org/2000/svg">
<path d="M0 9.39307C0 4.4236 4.02855 0.393066 8.99802 0.393066H15.7143V18.3931H8.99802C4.02855 18.3931 0 14.3625 0 9.39307Z" fill="#3F3F46"/>
<g clip-path="url(#clip0_3114_34697)">
<path d="M11.018 7.79557L10.9527 7.70665C14.2844 5.01687 13.9142 4.61674 13.9142 4.61674C13.5876 4.26107 13.2392 3.94985 12.869 3.6831C12.3464 3.30519 11.7802 2.99398 11.1705 2.79391C8.64445 1.86027 5.63938 2.59385 3.83198 4.61674C1.41485 7.26206 1.3713 11.4634 3.8102 14.1532C6.37976 16.9764 10.7567 17.1542 13.5223 14.5534L13.5658 14.5089L13.6094 14.4644L13.6311 14.4422C13.6747 14.3977 13.7182 14.3533 13.74 14.3088C14.5239 13.2863 13.348 10.5076 11.018 7.79557ZM13.1521 13.7976C12.9779 13.9754 12.2375 13.9976 11.0398 13.353C9.92923 12.7528 8.68801 11.7302 7.51211 10.4853C7.31612 10.641 10.5825 8.01786 10.4301 8.15124C11.4535 9.35164 12.3246 10.6632 12.7819 11.7524C13.3263 13.0195 13.3045 13.6419 13.1521 13.7976Z" fill="white" fill-opacity="0.98"/>
</g>
<path d="M15.7144 0.393066H55.7137C56.8183 0.393066 57.7137 1.2885 57.7137 2.39307V16.3931C57.7137 17.4976 56.8183 18.3931 55.7137 18.3931H15.7144V0.393066Z" fill="#3F3F46"/>
<path d="M17.9894 13.1731L21.1134 9.88407C21.8687 9.08473 22.2464 8.32573 22.2464 7.60707C22.2464 7.16707 22.1217 6.8224 21.8724 6.57307C21.6304 6.32373 21.2857 6.19907 20.8384 6.19907C19.885 6.19907 19.3314 6.78207 19.1774 7.94807H18.2864C18.345 7.17073 18.598 6.5584 19.0454 6.11107C19.5 5.6564 20.0977 5.42907 20.8384 5.42907C21.5644 5.42907 22.14 5.63073 22.5654 6.03407C22.998 6.43007 23.2144 6.9654 23.2144 7.64007C23.2144 8.5054 22.6864 9.45873 21.6304 10.5001L19.4634 12.6121H23.2584V13.3931H17.9894V13.1731ZM27.1018 13.4921C26.2878 13.4921 25.6645 13.2941 25.2318 12.8981C24.7992 12.4947 24.5498 11.9521 24.4838 11.2701H25.3968C25.4848 11.7467 25.6498 12.1097 25.8918 12.3591C26.1338 12.6011 26.5335 12.7221 27.0908 12.7221C27.6262 12.7221 28.0478 12.5534 28.3558 12.2161C28.6638 11.8787 28.8178 11.4131 28.8178 10.8191C28.8178 10.2617 28.6675 9.81807 28.3668 9.48807C28.0735 9.15073 27.6738 8.98207 27.1678 8.98207C26.7278 8.98207 26.3648 9.0444 26.0788 9.16907C25.7928 9.29373 25.5362 9.4844 25.3088 9.74107H24.9568V5.52807H29.3788V6.35307H25.7488V8.75107C26.1375 8.39173 26.6728 8.21207 27.3548 8.21207C28.0735 8.21207 28.6602 8.4504 29.1148 8.92707C29.5695 9.3964 29.7968 10.0271 29.7968 10.8191C29.7968 11.6331 29.5402 12.2821 29.0268 12.7661C28.5135 13.2501 27.8718 13.4921 27.1018 13.4921ZM34.3261 12.7001C35.7121 12.7001 36.4051 11.6844 36.4051 9.65307V9.21307C36.4051 8.2964 36.2181 7.56673 35.8441 7.02407C35.4701 6.47407 34.9567 6.19907 34.3041 6.19907C33.6367 6.19907 33.1161 6.46307 32.7421 6.99107C32.3681 7.51907 32.1811 8.26707 32.1811 9.23507V9.67507C32.1811 10.6504 32.3717 11.3984 32.7531 11.9191C33.1344 12.4397 33.6587 12.7001 34.3261 12.7001ZM34.3261 13.4921C33.3874 13.4921 32.6321 13.1437 32.0601 12.4471C31.4881 11.7504 31.2021 10.8301 31.2021 9.68607V9.24607C31.2021 8.08007 31.4771 7.1524 32.0271 6.46307C32.5844 5.77373 33.3434 5.42907 34.3041 5.42907C35.2574 5.42907 36.0054 5.7774 36.5481 6.47407C37.0981 7.17073 37.3731 8.0874 37.3731 9.22407V9.66407C37.3731 10.8227 37.1017 11.7504 36.5591 12.4471C36.0237 13.1437 35.2794 13.4921 34.3261 13.4921ZM41.953 12.7001C43.339 12.7001 44.032 11.6844 44.032 9.65307V9.21307C44.032 8.2964 43.845 7.56673 43.471 7.02407C43.097 6.47407 42.5837 6.19907 41.931 6.19907C41.2637 6.19907 40.743 6.46307 40.369 6.99107C39.995 7.51907 39.808 8.26707 39.808 9.23507V9.67507C39.808 10.6504 39.9987 11.3984 40.38 11.9191C40.7614 12.4397 41.2857 12.7001 41.953 12.7001ZM41.953 13.4921C41.0144 13.4921 40.259 13.1437 39.687 12.4471C39.115 11.7504 38.829 10.8301 38.829 9.68607V9.24607C38.829 8.08007 39.104 7.1524 39.654 6.46307C40.2114 5.77373 40.9704 5.42907 41.931 5.42907C42.8844 5.42907 43.6324 5.7774 44.175 6.47407C44.725 7.17073 45 8.0874 45 9.22407V9.66407C45 10.8227 44.7287 11.7504 44.186 12.4471C43.6507 13.1437 42.9064 13.4921 41.953 13.4921Z" fill="white"/>
<path d="M51.4434 9.43307C52.008 9.43307 52.437 9.30107 52.7304 9.03707C53.0237 8.76573 53.1704 8.37707 53.1704 7.87107V7.82707C53.1704 6.80773 52.5947 6.29807 51.4434 6.29807H50.1014V9.43307H51.4434ZM50.1014 11.5781V13.3931H49.1444V11.5781H48.0444V10.9401H49.1444V10.0821H48.0444V9.44407H49.1444V5.52807H51.3774C52.184 5.52807 52.844 5.71873 53.3574 6.10007C53.8707 6.47407 54.1274 7.04973 54.1274 7.82707V7.87107C54.1274 8.66307 53.8707 9.24973 53.3574 9.63107C52.8514 10.0051 52.1914 10.1921 51.3774 10.1921H50.1014V10.9401H52.7744V11.5781H50.1014Z" fill="white"/>
<path d="M62.1819 11.2451L64.0299 9.39707L62.1819 7.54907L62.7459 6.97307L64.5939 8.83307L66.4419 6.97307L67.0179 7.54907L65.1699 9.39707L67.0179 11.2451L66.4419 11.8211L64.5939 9.96107L62.7459 11.8211L62.1819 11.2451Z" fill="#3F3F46"/>
<path d="M75.3559 11.2931H70.3439V10.9011L74.9219 3.38307H76.5459V10.2991H77.9319V11.2931H76.5459V13.3931H75.3559V11.2931ZM75.3559 10.2991V4.30707L71.8839 10.2991H75.3559Z" fill="#3F3F46"/>
<defs>
<clipPath id="clip0_3114_34697">
<rect width="13.7143" height="14" fill="white" transform="translate(2 2.39307)"/>
</clipPath>
</defs>
</svg>
