<svg>

    <symbol id="logo_white" viewBox="0 0 230 50" fill="none" xmlns="http://www.w3.org/2000/svg">
        <g clip-path="url(#clip0_2557_5703)">
            <path d="M47.8892 22.4894C47.8892 27.3985 47.3383 31.3991 46.2367 34.5019C44.5535 39.2068 41.7787 42.8401 37.9125 45.3712C34.1891 47.8001 29.7718 49.0249 24.6713 49.0249C16.3675 49.0249 10.0019 46.1978 5.56436 40.5539C2.20816 36.2674 0.535156 31.1543 0.535156 25.2143C0.535156 18.6315 2.50399 13.0999 6.42126 8.6194C10.8792 3.51651 17.1019 0.975159 25.0895 0.975159C30.4247 0.975159 34.9439 2.34277 38.6572 5.06772C41.2992 7.01709 43.564 9.87478 45.4409 13.6613L34.3114 18.213C33.3627 16.1413 32.2508 14.5899 30.996 13.549C29.1904 12.0895 27.0277 11.3547 24.5285 11.3547C19.4278 11.3547 15.8676 13.9776 13.8682 19.2235C13.1133 21.1524 12.7358 23.1527 12.7358 25.2041C12.7358 29.4906 14.0926 33.0525 16.8163 35.9205C18.8259 38.0433 21.5191 39.1047 24.8753 39.1047C27.8642 39.1047 30.231 38.2373 31.9753 36.5022C33.1281 35.3591 33.883 33.6751 34.24 31.4297H24.5386V22.4689H47.8791L47.8892 22.4894ZM100.681 48.9637H73.3924V1.17927H85.7765V38.6454H100.67V48.9637H100.681ZM168.785 1.17927L148.433 48.9637H138.792L118.727 1.17927H132.223L143.719 30.2254L155.318 1.17927H168.785ZM229.563 48.9637H214.169L202.356 30.6949V48.9637H189.971V1.17927H209.262C214.904 1.17927 219.076 2.87344 221.78 6.26191C223.962 8.99707 225.065 12.2119 225.065 15.8964C225.065 20.1318 223.81 23.51 221.29 26.0309C219.678 27.6434 217.454 28.766 214.638 29.3988L229.573 48.9535L229.563 48.9637ZM212.036 16.9373C212.036 15.3247 211.446 13.9572 210.272 12.855C209.171 11.8139 207.386 11.2934 204.936 11.2934H202.743V22.6323H204.936C207.416 22.6323 209.201 22.1118 210.272 21.0707C211.446 19.9378 212.036 18.5601 212.036 16.9373Z" fill="white"/>
        </g>
        <defs>
            <clipPath id="clip0_2557_5703">
                <rect width="229.6" height="48.829" fill="white" transform="translate(0.199219 0.58551)"/>
            </clipPath>
        </defs>
    </symbol>

    <symbol id="burger_white" viewBox="0 0 22 22" fill="none" xmlns="http://www.w3.org/2000/svg">
        <path d="M1.1875 13.9867H20.8142M20.8142 8.01334H1.1875" stroke="white" stroke-width="1.33333"/>
    </symbol>

    <symbol id="search_white" viewBox="0 0 34 34" fill="none" xmlns="http://www.w3.org/2000/svg">
        <path d="M30.0007 31L19.6938 20.6931M22.5007 13.9167C22.5007 19.2094 18.21 23.5 12.9173 23.5C7.62459 23.5 3.33398 19.2094 3.33398 13.9167C3.33398 8.62395 7.62459 4.33334 12.9173 4.33334C18.21 4.33334 22.5007 8.62395 22.5007 13.9167Z" stroke="white" stroke-width="1.33333"/>
    </symbol>

    <symbol id="user_white" viewBox="0 0 34 34" fill="none" xmlns="http://www.w3.org/2000/svg">
        <path d="M4.66602 31V25.6667C4.66602 23.4575 6.45688 21.6667 8.66602 21.6667H25.9993C28.2085 21.6667 29.9993 23.4575 29.9993 25.6667V31M24.666 11.6667C24.666 15.7168 21.3828 19 17.3327 19C13.2826 19 9.99935 15.7168 9.99935 11.6667C9.99935 7.61659 13.2826 4.33334 17.3327 4.33334C21.3828 4.33334 24.666 7.61659 24.666 11.6667Z" stroke="white" stroke-width="1.33333" stroke-miterlimit="10"/>
    </symbol>

    <symbol id="hearth_white" viewBox="0 0 34 34" fill="none" xmlns="http://www.w3.org/2000/svg">
        <path d="M31.1828 6.72643C34.051 9.62506 34.051 14.3247 31.1828 17.2233L17.3341 31.2191L3.48513 17.2233C0.616936 14.3247 0.616936 9.62506 3.48513 6.72643C6.35332 3.8278 11.0036 3.8278 13.8718 6.72643L17.334 10.2254L20.7962 6.72643C23.6644 3.8278 28.3146 3.8278 31.1828 6.72643Z" stroke="white" stroke-width="1.33333"/>
    </symbol>

    <symbol id="cart_white" viewBox="0 0 34 34" fill="none" xmlns="http://www.w3.org/2000/svg">
        <path d="M17.0001 3V15.75M3 12.3333H31L28.3333 31H5.66667L3 12.3333Z" stroke="white" stroke-width="1.33333"/>
    </symbol>


</svg>